<?xml version="1.0" encoding="utf-8"?>
<!-- Generator: Adobe Illustrator 27.5.0, SVG Export Plug-In . SVG Version: 6.00 Build 0)  -->
<svg version="1.1" xmlns="http://www.w3.org/2000/svg" xmlns:xlink="http://www.w3.org/1999/xlink" x="0px" y="0px"
	 viewBox="0 0 500 500" style="enable-background:new 0 0 500 500;" xml:space="preserve">
<g id="BACKGROUND">
	<rect style="fill:#EBEBEB;" width="500" height="341.285"/>
	<g>
		<rect x="19.951" y="19.481" style="fill:#FFFFFF;" width="223.363" height="302.323"/>
		<g>
			<rect x="25.955" y="205.963" style="fill:#EBEBEB;" width="23.003" height="115.841"/>
			<rect x="174.304" y="205.963" style="fill:#EBEBEB;" width="23.003" height="115.841"/>
			<rect x="58.817" y="241.661" style="fill:#EBEBEB;" width="23.003" height="80.143"/>
			<rect x="209.982" y="241.661" style="fill:#EBEBEB;" width="23.003" height="80.143"/>
			<rect x="94.496" y="215.248" style="fill:#EBEBEB;" width="31.454" height="106.556"/>
			<polygon style="fill:#EBEBEB;" points="164.445,321.804 132.991,321.804 132.991,245.774 164.445,215.248 			"/>
			<rect x="15.627" y="294.944" style="fill:#EBEBEB;" width="227.687" height="26.86"/>
		</g>
		<rect x="261.01" y="19.481" style="fill:#FFFFFF;" width="223.363" height="302.323"/>
		<g>
			<rect x="267.014" y="205.963" style="fill:#EBEBEB;" width="23.003" height="115.841"/>
			<rect x="415.363" y="205.963" style="fill:#EBEBEB;" width="23.003" height="115.841"/>
			<rect x="299.876" y="241.661" style="fill:#EBEBEB;" width="23.003" height="80.143"/>
			<rect x="451.042" y="241.661" style="fill:#EBEBEB;" width="23.003" height="80.143"/>
			<rect x="335.555" y="215.248" style="fill:#EBEBEB;" width="31.454" height="106.556"/>
			<polygon style="fill:#EBEBEB;" points="405.504,321.804 374.051,321.804 374.051,245.774 405.504,215.248 			"/>
			<rect x="256.686" y="294.944" style="fill:#EBEBEB;" width="227.687" height="26.86"/>
		</g>
	</g>
	<rect y="326.523" style="fill:#D4D4D4;" width="500" height="14.762"/>
</g>
<g id="OBJECTS">
	<g>
		<g>
			<path style="fill:#96665B;" d="M84.438,352.416c0,1.036-7.791,1.876-17.401,1.876c-9.611,0-17.402-0.84-17.402-1.876
				c0-1.036,7.791-1.876,17.402-1.876C76.647,350.54,84.438,351.38,84.438,352.416z"/>
		</g>
		<g>
			<g>
				<path style="fill:#7894BA;" d="M63.263,358.514c1.496,0.031,1.785-10.124-0.176-20.254c-2.243-11.584-5.561-13.489-7.93-25.416
					c-2.155-10.851,0.093-11.784-2.077-19.693c-4.109-14.974-15.803-24.881-16.478-23.608c-0.403,0.76,3.45,4.885,4.997,12.416
					c1.775,8.635-1.694,10.981-1.118,19.013c0.661,9.211,5.651,12.108,12.793,28.997C60.337,346.667,63.263,358.514,63.263,358.514z
					"/>
				<path style="fill:#333F4F;" d="M63.263,358.514c0,0-11.678-21.498-21.178-50.66C42.085,307.854,57.304,329.1,63.263,358.514z"/>
				<path style="fill:#333F4F;" d="M64.477,367.992c0.344-5.788-1.101-12.632-1.116-12.7c-1.333-12.741-4.155-23.916-8.379-33.165
					c-0.395-0.866-0.808-1.729-1.227-2.602c-1.977-4.127-4.022-8.393-4.874-14.375c-0.462-3.237-0.343-5.382-0.229-7.457
					c0.117-2.11,0.227-4.104-0.255-7.049c-0.942-5.753-3.661-11.701-8.081-17.678l-0.299,0.407
					c4.335,5.863,6.998,11.677,7.917,17.282c0.466,2.849,0.359,4.798,0.245,6.861c-0.117,2.116-0.238,4.303,0.236,7.627
					c0.874,6.125,2.95,10.458,4.958,14.649c0.416,0.869,0.827,1.726,1.22,2.587c4.181,9.156,6.976,20.233,8.306,32.921
					c0.022,0.116,1.441,6.842,1.105,12.512L64.477,367.992z"/>
			</g>
			<g>
				<path style="fill:#333F4F;" d="M61.007,368.58l-0.655-0.276c7.493-35.628-1.904-76.426-2-76.834L59,291.165
					C59.097,291.576,68.562,332.655,61.007,368.58z"/>
				<g>
					<path style="fill:#7894BA;" d="M58.447,292.518c0,0-9.859-23.408-12.135-42.214c-0.785-6.489-0.864-12.35-0.672-17.164
						C45.64,233.14,60.208,260.885,58.447,292.518z"/>
					<path style="fill:#333F4F;" d="M45.64,233.14c0,0,0.28,13.876,6.613,27.506c6.333,13.63,12.782,22.529,7.331,50.881
						C59.583,311.526,43.106,256.724,45.64,233.14z"/>
				</g>
			</g>
			<g>
				<path style="fill:#7894BA;" d="M75.735,353.5c0,0,10.6-23.2,13.473-41.954c0.992-6.471,1.257-12.328,1.218-17.144
					C90.426,294.402,74.981,321.841,75.735,353.5z"/>
				<path style="fill:#333F4F;" d="M90.426,294.402c0,0-1.837,13.541-7.485,27.362c-9.641,23.592-15.919,20.11-11.37,48.565
					C71.571,370.328,92.21,318.03,90.426,294.402z"/>
			</g>
			<g>
				<path style="fill:#7894BA;" d="M65.396,352.218c-2.174,0.361-5.94-14.402-6.413-29.602c-0.541-17.383,3.676-20.864,3.206-38.775
					c-0.427-16.295-4.016-17.181-3.453-29.185C59.803,231.93,73.611,215,75.016,216.715c0.838,1.024-3.427,7.859-3.207,19.179
					c0.253,12.979,6.089,15.671,7.893,27.518c2.069,13.585-4.262,18.867-9.126,45.029C65.767,334.306,65.396,352.218,65.396,352.218
					z"/>
				<path style="fill:#333F4F;" d="M65.396,352.218c0,0,9.967-33.847,14.233-78.421C79.629,273.796,64.409,308.023,65.396,352.218z"
					/>
				<path style="fill:#333F4F;" d="M66.745,366.309c-2.407-8.376-2.552-18.671-2.553-18.774c-2.249-18.88-1.81-35.788,1.31-50.182
					c0.291-1.347,0.611-2.694,0.934-4.058c1.528-6.441,3.107-13.101,2.382-22.012c-0.392-4.823-1.272-7.929-2.122-10.934
					c-0.866-3.056-1.683-5.943-1.949-10.344c-0.519-8.596,1.491-17.852,5.975-27.512l0.571,0.531
					c-4.397,9.474-6.371,18.523-5.865,26.899c0.257,4.257,1.056,7.079,1.902,10.066c0.868,3.063,1.765,6.231,2.167,11.183
					c0.742,9.125-0.862,15.889-2.413,22.43c-0.321,1.356-0.639,2.695-0.93,4.033c-3.088,14.249-3.521,31.007-1.285,49.81
					c0.006,0.174,0.15,10.292,2.507,18.498L66.745,366.309z"/>
			</g>
			<path style="fill:#333F4F;" d="M65.546,359.764c0,0,15.991-43.275,30.537-70.122l-17.218,13.525L67.766,335.01L65.546,359.764z"
				/>
			<path style="fill:#7894BA;" d="M65.546,359.764c-0.781-14.613,0.916-24.748,2.59-31.27c2.421-9.432,5.028-12.226,8.139-25.016
				c2.774-11.404,2.145-15.119,3.7-20.638c2.427-8.614,9.192-18.129,28.674-20.951c0,0-2.96,0.591-4.995,4.048
				c-2.035,3.457-4.07,22.605-12.209,30.386c-8.14,7.781-16.464,15.036-20.719,33.61C66.471,348.507,65.546,359.764,65.546,359.764z
				"/>
			<path style="fill:#333F4F;" d="M65.887,367.484h-0.683v-7.72c0-23.659,7.2-39.648,14.163-55.111
				c2.721-6.043,5.292-11.751,7.325-17.722c7.158-21.023,15.637-22.762,15.994-22.825l0.086,0.959
				c-0.084,0.016-8.486,1.787-15.465,22.286c-2.051,6.022-4.631,11.754-7.363,17.821c-6.911,15.346-14.056,31.215-14.056,54.591
				V367.484z"/>
			<path style="fill:#333F4F;" d="M71.604,374.72c1.852-13.127,4.208-22.076,4.259-22.265l-0.638-0.318
				c-0.051,0.191-2.43,9.222-4.296,22.468C71.156,374.64,71.38,374.679,71.604,374.72z"/>
		</g>
		<path style="fill:#FF9775;" d="M67.036,354.292c-9.61,0-17.401-0.84-17.401-1.876l4.469,36.426h25.866l4.469-36.426
			C84.438,353.452,76.647,354.292,67.036,354.292z"/>
	</g>
	<g>
		<g>
			<path style="fill:#ABABAB;" d="M300.022,327.617h-98.656V347.6c0,2.216,1.796,4.012,4.012,4.012h93.559
				c4.302,0,8.46-1.546,11.716-4.357l6.014-5.191c0.883-0.762,1.391-1.871,1.391-3.037v-21.869l-8.177,6.869
				C307.12,326.346,303.629,327.617,300.022,327.617z"/>
			<rect x="259.76" y="265.683" style="fill:#ABABAB;" width="10.419" height="51.936"/>
			<rect x="247.398" y="334.385" style="fill:#ABABAB;" width="10.419" height="95.513"/>
			<path style="fill:#455B82;" d="M300.555,309.638c0,0-74.415-2.78-85.766,1.97c-11.351,4.75-13.423,16.009-13.423,16.009h100.753
				c2.252,0,4.432-0.794,6.157-2.243l9.782-8.217C314.399,308.683,300.555,309.638,300.555,309.638z"/>
			<path style="fill:#455B82;" d="M308.69,296.943h-78.687c-3.347,0-6.061-2.714-6.061-6.061v-86.468
				c0-15.609,12.654-28.263,28.263-28.263h34.284c15.609,0,28.263,12.654,28.263,28.263v86.468
				C314.751,294.23,312.037,296.943,308.69,296.943z"/>
			<polygon style="fill:#ABABAB;" points="248.346,418.424 182.506,449.354 194.303,450.645 255.615,428.226 			"/>
			<path style="fill:#ABABAB;" d="M192.651,462.79h-8.611c-1.708,0-3.093-1.385-3.093-3.093v-9.827c0-1.708,1.385-3.093,3.093-3.093
				h8.611c1.708,0,3.093,1.385,3.093,3.093v9.827C195.745,461.405,194.36,462.79,192.651,462.79z"/>
			<polygon style="fill:#ABABAB;" points="257.06,418.424 322.9,449.354 311.102,450.645 249.79,428.226 			"/>
			<path style="fill:#ABABAB;" d="M312.754,462.79h8.611c1.708,0,3.093-1.385,3.093-3.093v-9.827c0-1.708-1.385-3.093-3.093-3.093
				h-8.611c-1.708,0-3.093,1.385-3.093,3.093v9.827C309.661,461.405,311.046,462.79,312.754,462.79z"/>
			<path style="fill:#ABABAB;" d="M247.97,469.249h8.611c1.708,0,3.093-1.385,3.093-3.093v-10.617c0-1.708-1.385-3.093-3.093-3.093
				h-8.611c-1.708,0-3.093,1.385-3.093,3.093v10.617C244.876,467.864,246.261,469.249,247.97,469.249z"/>
			<polygon style="fill:#ABABAB;" points="246.456,426.428 247.732,458.483 257.08,458.483 258.758,426.281 			"/>
		</g>
		<g>
			<g>
				<path style="fill:#383534;" d="M135.159,399.752c0,0-5.287,5.954-3.842,9.23c1.446,3.275,8.166,11.942,8.074,14.923
					c-0.092,2.982-0.448,4.792,3.614,7.13c4.062,2.339,14.742,4.703,17.876,4.551c3.134-0.152-6.196-12.217-6.196-12.217
					L135.159,399.752z"/>
				<path style="fill:#383534;" d="M131.134,408.213v15.183l3.123,0.182l1.091-1.405c0.56-2.839,0.828-8.232,1.027-8.569
					C136.668,413.109,131.134,408.213,131.134,408.213z"/>
				<path style="fill:#FAB39B;" d="M146.291,402.322l8.394,21.047c0,0-4.618,2.102-8.387-1.818
					c-2.951-3.068-8.05-13.088-9.614-17.046c-0.319-0.808-1.525-4.753-1.525-4.753L146.291,402.322z"/>
				<path style="fill:#FAB39B;" d="M135.159,399.752l4.45-16.551l12.374,1.564l-5.691,17.557
					C146.291,402.322,139.527,406.205,135.159,399.752z"/>
				<path style="fill:#FAB39B;" d="M90.366,410.827c0,0,3.472,7.525,2.292,18.814c-1.179,11.288,10.137,18.061,10.137,18.061
					s4.049-1.505,5.211-9.031c1.162-7.526-4.492-4.452-5.135-23.255L90.366,410.827z"/>
				<path style="fill:#383534;" d="M92.741,433.553l7.062,4.101c2.298,1.335,5.282,0.755,6.854-1.332l0.856-2.472
					c0,0,8.583,11.83,4.898,14.511c-3.685,2.681-18.121,1.086-20.479,0.239C89.574,447.753,92.741,433.553,92.741,433.553z"/>
				<path style="fill:#383534;" d="M113.49,214.181c0,0-16.061,8.225-19.723,15.057C86.631,242.553,71.011,344.459,89.5,416.14
					c0,0,6.542,4.551,16.214,0c0,0,0.89-65.423,2.449-79.077c1.559-13.654,8.552-53.949,8.552-53.949l18.779-26.266l11.467-36.979
					L113.49,214.181z"/>
				<path style="fill:#383534;" d="M153.536,222.463c0,0,25.566,87.609,25.566,93.709c0,6.1-25.566,71.523-25.566,71.523
					s-7.604,3.603-18.042-3.603l15.732-78.563l-37.736-52.664l13.889-33.565L153.536,222.463z"/>
				<path style="fill:#FFC375;" d="M184.649,160.846c-31.596-17.336-53.397-4.95-65.993,5.404
					c-6.467,5.316-9.033,14.035-6.508,22.017l4.233,19.086l-2.891,6.827c20.907,23.894,40.045,8.282,40.045,8.282
					c4.342-2.174,8.089-5.254,11.326-8.884c13.564-1.453,12.471-14.654,11.603-19.481
					C183.186,177.594,184.649,160.846,184.649,160.846z"/>
				<path style="fill:#FFFFFF;" d="M144.288,158.39c0,0-11.705,2.599-7.006,13.123c4.699,10.525,9.68,16.032,9.68,16.032
					l13.082-7.925l10.14,3.698C170.184,183.318,183.146,146.262,144.288,158.39z"/>
				<polygon style="fill:#FFC375;" points="184.649,160.846 216.01,211.221 204.703,219.301 179.102,181.404 				"/>
				<path style="fill:#FAB39B;" d="M144.233,166.514c0,0-0.743,10.672,15.811,13.106c0,0,11.049-6.607,6.002-16.749
					C161,152.73,144.233,166.514,144.233,166.514z"/>
				<path style="fill:#DE937A;" d="M166.046,162.872c-5.046-10.141-21.758-4.482-21.758-4.482s-0.676,6.225,0.055,8.467
					c3.097,3.108,6.959,5.572,11.719,6.425c5.085,0.911,8.747-1.266,11.35-5.079C167.403,166.589,167.011,164.81,166.046,162.872z"
					/>
				<path style="fill:#FAB39B;" d="M135.595,146.997c0,0,12.228,27.378,27.169,23.325c7.353-1.995,11.517-10.809,11.719-28.024
					c0.147-12.49-22.563-34.467-35.034-16.513C131.333,137.467,135.595,146.997,135.595,146.997z"/>
				<path style="fill:#383534;" d="M145.253,129.597c-4.57,5.756-12.941,6.718-18.697,2.148c-5.756-4.57-6.718-12.941-2.148-18.697
					c4.57-5.756,12.941-6.718,18.697-2.148C148.861,115.469,149.822,123.84,145.253,129.597z"/>
				<path style="fill:#383534;" d="M165.275,131.193c0,0,7.251,0.383,9.207,11.105c0,0,6.482-28.983-24.238-23.604
					s-13.616,33.398-13.616,33.398l6.1,0.615v-6.215C142.728,146.492,163.138,148.573,165.275,131.193z"/>
				<g>
					<g>
						<path style="fill:#FAB39B;" d="M135.697,156.026c0.196,3.637,3.018,6.442,6.304,6.265c3.285-0.177,5.79-3.27,5.594-6.907
							c-0.196-3.637-3.018-6.442-6.304-6.265C138.005,149.297,135.501,152.389,135.697,156.026z"/>
						<path style="fill:#38261F;" d="M141.149,158.03c0.27-0.947,1.918-1.514,2.53-1.653l0.404-0.091l-0.187-0.369
							c-0.728-1.439-1.643-2.304-2.722-2.572c-1.365-0.34-2.462,0.423-2.508,0.456l0.372,0.528c0.009-0.006,0.912-0.624,1.988-0.354
							c0.8,0.201,1.507,0.835,2.106,1.885c-0.744,0.232-2.275,0.84-2.604,1.995L141.149,158.03z"/>
					</g>
					<path style="fill:#FFFFFF;" d="M143.269,159.348c-1.023-0.167-1.987,0.528-2.153,1.55c-0.167,1.023,0.527,1.987,1.55,2.153
						c1.023,0.166,1.987-0.528,2.153-1.55C144.986,160.479,144.292,159.515,143.269,159.348z"/>
				</g>
				<path style="fill:#FAB39B;" d="M190.701,198.574l18.837,27.838l13.796-3.84l-20.991-33.304
					C198.196,189.268,192.975,193.384,190.701,198.574z"/>
				<path style="fill:#383534;" d="M146.124,124.548l-0.723-0.516c0.753-1.057,2.442-3.91,1.843-7.563
					c-0.934-5.703-6.701-7.954-6.759-7.976l0.316-0.831c0.257,0.098,6.305,2.46,7.321,8.664
					C148.773,120.303,146.942,123.401,146.124,124.548z"/>
				<path style="fill:#383534;" d="M149.304,148.304l-0.169-0.873c1.699-0.329,10.363-2.337,14.09-9.561
					c1.693-3.281,1.745-6.457,1.492-8.544l0.882-0.108c0.386,3.171-0.162,6.303-1.583,9.059
					C160.1,145.867,151.073,147.962,149.304,148.304z"/>
			</g>
			<g>
				<path style="fill:#FAB39B;" d="M165.449,261.862l-23.551-33.138l-2.828-19.424l0,0c-7.316-7.04-17.995-1.519-20.069,1.041
					l5.06,22.187l29.475,35.414c0.809,0,1.579-0.089,2.326-0.218l2.177-0.549C163.502,265.312,165.449,261.862,165.449,261.862z"/>
				<path style="fill:#FFFFFF;" d="M191.895,201.458l-3.679-4.324c-0.087-0.102-0.113-0.24-0.065-0.366
					c0.581-1.526,4.578-11.156,12.553-10.373c0.106,0.01,0.205,0.073,0.264,0.167l2.989,4.775c0.123,0.196,0.043,0.457-0.168,0.528
					c-1.876,0.637-9.555,3.571-11.322,9.454C192.387,201.585,192.073,201.667,191.895,201.458z"/>
				<path style="fill:#FFFFFF;" d="M118.903,210.344l-1.704-6.678c-0.04-0.157,0.014-0.305,0.148-0.388
					c1.629-1.005,12.293-7.115,21.272-0.651c0.119,0.086,0.198,0.216,0.21,0.345l0.608,6.603c0.025,0.271-0.23,0.457-0.524,0.372
					c-2.617-0.755-13.532-3.538-19.246,0.679C119.409,210.817,118.986,210.668,118.903,210.344z"/>
			</g>
			<g>
				<path style="fill:#38261F;" d="M162.936,163.167c1.416-0.233,2.264-0.741,2.339-0.787l-0.354-0.574
					c-0.153,0.093-3.786,2.241-8.937-0.899l-0.351,0.576C158.66,163.328,161.217,163.45,162.936,163.167z"/>
				<path style="fill:#38261F;" d="M165.925,158.928c0.07-0.019,1.724-0.477,2.129-1.874c0.309-1.071-0.212-2.347-1.55-3.793
					l-0.495,0.458c1.148,1.241,1.632,2.328,1.398,3.145c-0.296,1.032-1.643,1.41-1.657,1.413L165.925,158.928z"/>
				<path style="fill:#38261F;" d="M157.417,153.461c0.13,0.828,0.627,1.438,1.11,1.363c0.483-0.076,0.769-0.809,0.638-1.637
					c-0.13-0.828-0.627-1.438-1.11-1.362C157.573,151.9,157.287,152.633,157.417,153.461z"/>
				<path style="fill:#38261F;" d="M170.295,150.852c0.124,0.807,0.606,1.402,1.076,1.329c0.47-0.072,0.751-0.785,0.626-1.592
					c-0.124-0.807-0.606-1.402-1.076-1.33C170.451,149.333,170.17,150.046,170.295,150.852z"/>
				<path style="fill:#383534;" d="M158.922,147.548c-0.26-0.046-0.563-0.005-0.807,0.016c-1.416,0.123-2.802,0.764-3.869,1.699
					c-2.212,1.938,0.932,0.069,2.811-0.407c0.52-0.132,1.042-0.272,1.541-0.469c0.217-0.086,0.498-0.183,0.662-0.36
					c0.17-0.184,0.072-0.321-0.127-0.414C159.068,147.582,158.997,147.561,158.922,147.548z"/>
				<path style="fill:#383534;" d="M169.176,145.63c0.138-0.108,0.334-0.151,0.488-0.197c0.893-0.262,1.966-0.066,2.961,0.469
					c2.062,1.108-0.531,0.303-1.835,0.379c-0.361,0.021-0.727,0.035-1.1-0.007c-0.162-0.018-0.367-0.029-0.533-0.14
					c-0.172-0.115-0.166-0.26-0.082-0.393C169.101,145.697,169.136,145.661,169.176,145.63z"/>
			</g>
			
				<rect x="136.669" y="189.772" transform="matrix(0.9896 -0.1441 0.1441 0.9896 -26.7864 21.7964)" style="fill:#383534;" width="0.889" height="12.18"/>
			<path style="fill:#383534;" d="M146.623,215.694c-0.211,0-0.325-0.002-0.335-0.002l0.015-0.889
				c0.083,0.002,8.35,0.12,18.635-1.84l0.167,0.873C155.896,215.59,148.282,215.694,146.623,215.694z"/>
			
				<rect x="180.114" y="181.102" transform="matrix(0.9119 -0.4104 0.4104 0.9119 -58.3889 91.0629)" style="fill:#383534;" width="5.637" height="0.888"/>
			<path style="fill:#7894BA;" d="M131.88,134.295c0,0-1.793-11.697,16.048-15.293C147.928,119.002,129.458,117.13,131.88,134.295z"
				/>
		</g>
		<g>
			<path style="fill:#704C44;" d="M243.776,132.113c0,0.427-2.217,20.607,1.077,22.561s5.835-21.929,5.835-21.929L243.776,132.113z"
				/>
			<g>
				<path style="fill:#DE937A;" d="M241.79,158.535c0.539,2.989,3.165,5.017,5.865,4.53c2.7-0.487,4.452-3.305,3.912-6.294
					c-0.539-2.989-3.165-5.017-5.865-4.53C243.003,152.728,241.251,155.546,241.79,158.535z"/>
				
					<rect x="243.485" y="155.283" transform="matrix(0.9825 -0.1861 0.1861 0.9825 -24.7029 48.2859)" style="fill:#FFFFFF;" width="2.735" height="0.889"/>
			</g>
			<path d="M249.284,453.631c0,0-3.526,7.284-10.293,15.768c-5.088,6.379-10.732,11.255-8.21,14.567
				c1.905,2.502,12.638,2.132,26.179-6.977c6.496-4.37,11.873-8.081,15.621-9.687c0.936-0.401,1.592-1.228,1.668-2.215
				c0.196-2.546,0.368-7.533-0.81-11.447C271.786,448.142,249.284,453.631,249.284,453.631z"/>
			<path d="M202.314,444.176c0,0-26.916,16.803-33.122,20.646c-6.206,3.844,1.171,3.323,6.582,3.226
				c5.411-0.097,31.685-7.622,36.343-6.257c4.659,1.365,11.262-0.795,11.262-0.795s4.536-13.739-0.057-22.255
				C218.728,430.225,202.314,444.176,202.314,444.176z"/>
			<path style="fill:#383534;" d="M307.645,294.175c0,0,3.604,21.132-1.39,26.41c-3.111,3.287-32.362,26.039-32.362,26.039
				l1.85,110.076l-29.335,3.262c0,0-11.132-112.765-10.247-123.159c0.854-10.027,34.174-35.138,34.174-35.138L307.645,294.175z"/>
			<path style="fill:#383534;" d="M233.642,291.425c-29.477,23.682-29.66,23.379-36.944,30.721
				c-5.08,5.12,2.54,121.602,2.54,121.602s19.23,2.56,27.939-5.12l-0.55-90.309l43.708-43.667L233.642,291.425z"/>
			<polygon style="fill:#383534;" points="305.572,272.281 307.645,294.175 259.501,317.637 230.921,296.182 230.848,274.759 			"/>
			<path style="fill:#FFFFFF;" d="M263.909,296.844c0,0,6.421,3.462,8.417,7.089l26.376-12.301L263.909,296.844z"/>
			<path style="fill:#FFFFFF;" d="M244.099,295.32c0,0-7.253,2.489-7.965,5.476l-7.822-9.163L244.099,295.32z"/>
			<path style="fill:#7894BA;" d="M257.16,182.669c0,0-27.458,8.936-33.218,17.912c-5.76,8.976,2.915,30.612,2.915,30.612
				l-0.257,61.069l12.288,3.188c9.26,2.402,18.906,2.938,28.375,1.575l40.382-6.616l-2.335-27.303c0,0,13.955-56.875,10.755-60.241
				c-3.2-3.366-22.455-18.597-42.809-21.462L257.16,182.669z"/>
			<polygon style="fill:#FFFFFF;" points="253.273,193.141 260.862,213.175 273.574,193.963 262.329,190.031 			"/>
			<path style="fill:#383534;" d="M257.363,193.593c0,0,0.621,6.964,1.954,7.458c1.545,0.572,4.475,1.229,6.137-0.096
				c1.662-1.325,2.608-7.126,2.608-7.126l-5.419-2.592L257.363,193.593z"/>
			<polygon style="fill:#383534;" points="260.324,199.756 257.352,203.907 260.862,213.175 266.837,204.145 264.16,199.996 			"/>
			<path style="fill:#7894BA;" d="M316.065,202.865c0,0,7.284,39.242,11.353,54.131c0.681,2.492-0.871,5.037-3.397,5.572
				l-45.503,9.64l-4.764-20.907l23.823-6.099L316.065,202.865z"/>
			
				<rect x="299.986" y="228.979" transform="matrix(0.9705 -0.2411 0.2411 0.9705 -48.4659 79.4474)" style="fill:#383534;" width="0.89" height="17.604"/>
			
				<rect x="289.339" y="247.416" transform="matrix(0.9279 -0.3727 0.3727 0.9279 -70.7859 129.5604)" style="fill:#383534;" width="20.724" height="0.888"/>
			<g>
				<path style="fill:#B3B3B3;" d="M291.645,267.942h-84.898l-3.464-49.504c-0.12-1.721,1.146-3.188,2.752-3.188h86.322
					c1.606,0,2.873,1.467,2.752,3.188L291.645,267.942z"/>
				<path style="fill:#D4D4D4;" d="M259.746,246.034c0,2.451-4.723,4.437-10.549,4.437c-5.826,0-10.549-1.986-10.549-4.437
					c0-2.451,4.723-4.437,10.549-4.437C255.023,241.597,259.746,243.583,259.746,246.034z"/>
				<path style="fill:#D4D4D4;" d="M206.036,218.048h86.322c1.253,0,2.29,0.898,2.632,2.109l0.12-1.719
					c0.12-1.721-1.146-3.188-2.752-3.188h-86.322c-1.606,0-2.873,1.467-2.752,3.188l0.12,1.719
					C203.745,218.946,204.782,218.048,206.036,218.048z"/>
			</g>
			<path style="fill:#FFFFFF;" d="M249.196,184.991c0,0,0.309-6.213,15.188-6.219c14.879-0.005,14.835,3.815,14.835,3.815
				s1.467,8.611-5.467,13.542l-11.11-4.892l-9.771,4.36C252.872,195.597,248.889,190.468,249.196,184.991z"/>
			<path style="fill:#FAB39B;" d="M272.681,169.296v16.212c0,0.518-0.23,1.012-0.638,1.331c-1.885,1.473-7.767,5.077-15.235-0.031
				c-0.456-0.312-0.72-0.845-0.72-1.398V174.44L272.681,169.296z"/>
			<path style="fill:#DE937A;" d="M256.088,179.764c3.708,0.243,12.389-0.099,16.593-7.866v-2.602l-16.593,5.144V179.764z"/>
			<path style="fill:#FAB39B;" d="M245.819,138.701c-0.001,0.003-4.653,38.224,11.126,38.876
				c11.226,0.464,15.979-2.054,18.443-11.512c1.736-6.663,2.957-17.612,1.327-24.563c-0.667-2.847,2.927-6.637,0.839-8.684
				c-4.776-4.68-12.814-7.113-19.288-6.284C251.415,127.415,246.777,131.808,245.819,138.701z"/>
			<path style="fill:#704C44;" d="M274.912,153.725l-1.159-12.79c0,0-21.151,4.416-28.657-1.79
				c-15.246-12.607,0.427-27.927,24.251-12.768c5.503,3.501,10.224,4.876,12.091,5.989c1.348,0.803,2.252,2.184,2.408,3.745
				c0.322,3.211,0.181,19.133-2.443,24.797L274.912,153.725z"/>
			<g>
				<path style="fill:#FAB39B;" d="M284.755,158.454c-0.61,3.384-3.583,5.681-6.641,5.13c-3.057-0.552-5.04-3.742-4.43-7.127
					c0.61-3.384,3.583-5.681,6.641-5.13C283.382,151.88,285.365,155.07,284.755,158.454z"/>
				<path style="fill:#38261F;" d="M279.895,159.277c-0.426-0.826-2.058-1.043-2.65-1.057l-0.391-0.009l0.104-0.377
					c0.405-1.468,1.091-2.439,2.039-2.888c1.2-0.569,2.358-0.069,2.406-0.047l-0.246,0.558c-0.009-0.003-0.961-0.407-1.906,0.043
					c-0.702,0.336-1.238,1.054-1.597,2.138c0.732,0.076,2.263,0.353,2.783,1.359L279.895,159.277z"/>
			</g>
			<path style="fill:#704C44;" d="M261.461,146.849c0.556-0.852,2.744-0.317,3.958,0.199c1.528,0.65,2.859,1.844,2.681,2.203
				c-0.121,0.244-0.831-0.115-2.458-0.225c-2.208-0.148-2.96,0.374-3.676-0.231C261.396,148.314,261.13,147.354,261.461,146.849z"/>
			<path style="fill:#704C44;" d="M251.727,146.512c-0.628-0.788-2.736-0.057-3.885,0.566c-1.446,0.784-2.648,2.086-2.438,2.423
				c0.143,0.229,0.809-0.191,2.403-0.451c2.163-0.353,2.954,0.092,3.603-0.571C251.927,147.951,252.1,146.98,251.727,146.512z"/>
			<path style="fill:none;stroke:#383534;stroke-width:0.75;stroke-miterlimit:10;" d="M309.313,243.993"/>
			<path d="M235.668,338.877c-0.24-3.294-1.329-19.815,0.727-21.578c1.769-1.516,12.718-9.674,15.446-11.703l-9.173-4.306
				l0.377-0.806l10.519,4.938l-0.597,0.443c-0.14,0.104-14.037,10.431-15.994,12.109c-1.326,1.137-0.961,13.385-0.42,20.837
				L235.668,338.877z"/>
			<rect x="268.599" y="340.84" transform="matrix(0.0079 -1 1 0.0079 -69.493 612.5269)" width="10.679" height="0.889"/>
			
				<rect x="217.074" y="350.532" transform="matrix(0.8562 -0.5166 0.5166 0.8562 -149.3641 165.2574)" width="10.292" height="0.889"/>
			<path style="fill:#383534;" d="M277.924,446.805l1.441,11.99c0.034,0.282-0.089,0.543-0.332,0.685
				c-2.953,1.719-22.194,12.128-35.915,0.188c-0.182-0.158-0.287-0.394-0.279-0.625l0.387-11.806
				c0.016-0.484,0.484-0.805,0.961-0.64c4.24,1.466,22.003,6.931,32.514-0.33C277.175,445.939,277.854,446.225,277.924,446.805z"/>
			<path style="fill:#383534;" d="M228.256,430.543l1.366,11.347c0.032,0.267-0.084,0.513-0.315,0.645
				c-2.804,1.603-21.067,11.299-34.088-0.093c-0.173-0.151-0.273-0.375-0.265-0.593l0.37-11.158
				c0.015-0.458,0.459-0.757,0.912-0.598c4.024,1.418,20.882,6.718,30.86-0.067C227.545,429.719,228.189,429.994,228.256,430.543z"
				/>
			<path d="M260.507,450.613c-8.264,0-13.66-2.697-13.74-2.737l0.406-0.792c0.117,0.061,11.899,5.928,27.323-0.018l0.319,0.829
				C269.53,449.933,264.656,450.613,260.507,450.613z"/>
			<path d="M213.655,434.217c-7.816,0-13.819-2.52-13.905-2.557l0.351-0.817c0.123,0.052,12.422,5.201,24.592,0.528l0.318,0.829
				C221.109,433.7,217.196,434.217,213.655,434.217z"/>
			<path style="fill:#FFFFFF;" d="M267.558,160.021h-7.281c-1.061,0-1.924-0.863-1.924-1.924v-4.427
				c0-1.061,0.863-1.924,1.924-1.924h7.281c1.061,0,1.924,0.863,1.924,1.924v4.427C269.482,159.158,268.618,160.021,267.558,160.021
				z M260.277,152.635c-0.571,0-1.035,0.465-1.035,1.035v4.427c0,0.571,0.465,1.035,1.035,1.035h7.281
				c0.571,0,1.035-0.465,1.035-1.035v-4.427c0-0.571-0.465-1.035-1.035-1.035H260.277z"/>
			<path style="fill:#FFFFFF;" d="M250.37,160.021h-5.503c-1.061,0-1.924-0.863-1.924-1.924v-4.427c0-1.061,0.863-1.924,1.924-1.924
				h5.503c1.061,0,1.924,0.863,1.924,1.924v4.427C252.295,159.158,251.431,160.021,250.37,160.021z M244.867,152.635
				c-0.571,0-1.035,0.465-1.035,1.035v4.427c0,0.571,0.465,1.035,1.035,1.035h5.503c0.571,0,1.035-0.465,1.035-1.035v-4.427
				c0-0.571-0.465-1.035-1.035-1.035H244.867z"/>
			<g>
				<path style="fill:#38261F;" d="M257.085,167.768c-1.629-0.087-2.65-0.555-2.74-0.599l0.328-0.693
					c0.184,0.086,4.555,2.062,9.984-2.125l0.468,0.607C261.935,167.418,259.062,167.874,257.085,167.768z"/>
				<path style="fill:#38261F;" d="M254.629,162.214c-0.081-0.013-2.007-0.324-2.637-1.853c-0.482-1.172-0.052-2.678,1.28-4.477
					l0.616,0.456c-1.143,1.544-1.554,2.833-1.189,3.726c0.462,1.128,2.031,1.388,2.047,1.391L254.629,162.214z"/>
				<path style="fill:#38261F;" d="M264.269,156.144c-0.185,0.935-0.776,1.605-1.321,1.498c-0.545-0.108-0.837-0.953-0.652-1.888
					c0.185-0.935,0.776-1.606,1.321-1.498S264.453,155.209,264.269,156.144z"/>
				<path style="fill:#38261F;" d="M249.553,155.845c-0.168,0.852-0.707,1.463-1.204,1.365c-0.497-0.098-0.763-0.868-0.594-1.72
					c0.168-0.852,0.707-1.463,1.204-1.365C249.455,154.223,249.721,154.993,249.553,155.845z"/>
			</g>
			<path style="fill:#FFFFFF;" d="M258.538,155.834c-3.836-2.755-6.406-0.165-6.514-0.054l-0.644-0.613
				c0.032-0.033,3.196-3.271,7.676-0.055L258.538,155.834z"/>
			
				<rect x="268.858" y="153.971" transform="matrix(0.9446 -0.3283 0.3283 0.9446 -35.6155 97.8897)" style="fill:#FFFFFF;" width="6.439" height="0.888"/>
			<path style="fill:#704C44;" d="M273.744,130.664c-2.719-3.625-8.702-9.957-18.21-11.634c-3.299-0.58-6.689-0.533-10.077,0.141
				l-0.174-0.872c3.494-0.695,6.995-0.745,10.404-0.144c9.81,1.73,15.969,8.245,18.767,11.975L273.744,130.664z"/>
			<path style="fill:#704C44;" d="M256.828,169.403c0,0-6.14,6.022-10.149-3.601c0,0-1.113,9.631,4.009,14.95
				c3.404,3.536,19.946,4.791,24.431-1.98c4.485-6.771,2.546-19.195,2.546-19.195l-4.209,0.985c-0.977,0.428-1.684,1.294-1.92,2.334
				c-0.823,3.618-3.633,11.623-11.8,6.294L256.828,169.403z"/>
			<path style="fill:#704C44;" d="M251.457,181.364c-2.086-1.43-4.158-3.13-5.188-5.872c-1.022-2.72-0.874-6.156,0.366-8.549
				l0.789,0.409c-1.115,2.15-1.248,5.369-0.324,7.828c0.943,2.511,2.892,4.104,4.858,5.45L251.457,181.364z"/>
		</g>
		<g>
			<path style="fill:#704C44;" d="M347.865,84.343c0,0,15.62-7.743,25.859,7.854c10.239,15.598,22.194,51.023,22.194,51.023
				s-27.821,1.569-55.661-6.22c0,0-8.781-27.307-7.4-41.447C334.238,81.414,347.865,84.343,347.865,84.343z"/>
			<path style="fill:#FAB39B;" d="M370.334,271.385c0,0,1.939,66.04,11.958,70.306c0,0,2.426,37.98-1.864,66.795
				c0,0,4.946,0.945,12.262-3.698c0,0,17.983-46.457,5.183-73.337c0,0,12.402-49.494,3.428-65.281
				C392.326,250.384,370.334,271.385,370.334,271.385z"/>
			<g>
				<path style="fill:#383534;" d="M390.816,404.678c0,0,7.889,4.511,5.957,7.929c-1.932,3.418-10.203,12.149-10.424,15.412
					c-0.222,3.264-0.029,5.278-4.714,7.391c-4.685,2.113-16.596,3.539-20,3.033c-3.404-0.505,9.369-12.702,9.369-12.702
					L390.816,404.678z"/>
				<path style="fill:#383534;" d="M395.122,412.608l-1.642,16.568l-3.428-0.139l-1.038-1.65c-0.305-3.159-0.013-9.073-0.194-9.463
					C388.554,417.352,395.122,412.608,395.122,412.608z"/>
				<path style="fill:#FAB39B;" d="M381.569,406.397l-10.566,19.345c0,0,5.64,2.196,10.177-1.674
					c3.552-3.029,8.086-12.776,10.22-16.926c0.436-0.847,2.178-5.022,2.178-5.022L381.569,406.397z"/>
			</g>
			<path style="fill:#383534;" d="M326.247,399.031c0,0,8.318,3.722,6.729,7.323c-1.59,3.602-8.98,13.132-8.879,16.41
				c0.102,3.279,0.493,5.269-3.974,7.841c-4.466,2.572-16.211,5.172-19.657,5.004c-3.447-0.168,7.06-13.435,7.06-13.435
				L326.247,399.031z"/>
			<path style="fill:#383534;" d="M332.976,406.354v16.695l-3.434,0.201l-1.199-1.544c-0.616-3.122-0.91-9.052-1.129-9.423
				C326.891,411.738,332.976,406.354,332.976,406.354z"/>
			<path style="fill:#FAB39B;" d="M331.583,321.415c4.125-13.425,9.387-71.187,24.2-104.356l39.339,4.449
				c0,0-13.877,54.627-43.362,106.004c0,0,0.976,15.135-4.397,23.693c-15.837,25.225-14.387,35.1-20.246,49.275
				c-2.417,0.488-4.082,4.901-10.672,3.069C316.362,381.686,322.39,351.333,331.583,321.415z"/>
			<path style="fill:#FAB39B;" d="M317.127,400.086l-9.6,22.088c0,0,4.831,2.311,8.977-1.999
				c3.245-3.374,8.852-14.392,10.572-18.744c0.351-0.888,1.677-5.227,1.677-5.227L317.127,400.086z"/>
			<path style="fill:#383534;" d="M349.094,198.632v17.634c0,0-20.143,56.238-19.005,91.035c0,0,26.862,23.767,85.002-4.674
				c0,0-8.452-83.078-11.643-89.254c-7.529-14.568-19.935-18.767-19.935-18.767S363.885,209.955,349.094,198.632z"/>
			<path style="fill:#7894BA;" d="M396.807,141.548L396.807,141.548c2.015,0.761,4.07,1.818,5.195,3.654
				c7.413,12.1,25.176,41.201,25.176,41.201l-11.679,10.926l-25.658-32.705C389.841,164.625,378.049,150.889,396.807,141.548z"/>
			<path style="fill:#7894BA;" d="M337.147,137.885c0,0-5.28,3.133-5.707,14.633c-0.427,11.5-4.006,35.666-4.006,35.666
				l-25.714,17.082c0,0,7.59,3.047,9.562,10.11l29.789-14.583c1.074-0.526,1.808-1.562,1.947-2.75l4.796-40.884L337.147,137.885z"/>
			<path style="fill:#FFFFFF;" d="M302.864,203.698l4.157-3.33c0.098-0.078,0.226-0.096,0.34-0.043
				c1.377,0.644,10.054,5.027,8.952,12.704c-0.015,0.102-0.077,0.195-0.166,0.246l-4.54,2.638c-0.186,0.108-0.423,0.017-0.478-0.191
				c-0.497-1.85-2.832-9.439-8.165-11.463C302.723,204.167,302.663,203.859,302.864,203.698z"/>
			<path style="fill:#383534;" d="M336.752,194.81c-3.15-6.122-9.176-6.181-9.311-6.181c-0.001,0-0.001,0-0.002,0l-0.007-0.889
				c0.027-0.021,6.688,0.011,10.11,6.664L336.752,194.81z"/>
			<path style="fill:#7894BA;" d="M337.147,137.885c0,0,33.565-14.616,64.286,6.311l-10.24,14.669c0,0-0.569,25.556-7.965,37.24
				c0,0-15.36,15.557-34.134,2.527c0,0-10.809-22.97-9.671-32.791L337.147,137.885z"/>
			<g>
				<g>
					<g>
						<g>
							<path style="fill:#FAB39B;" d="M312.921,215.997c0.226-0.447,3.001-3.904,2.932-4.43
								c-0.782-5.959-13.957-10.574-17.049-5.454c-1.659,2.747-2.04,5.811-2.073,6.711c-0.162,4.526,2.849,3.145,2.849,3.145
								s-0.228,2.374,1.555,2.977c2.221,0.751,1.845-2.121,1.845-2.121s-1.167,3.649,0.197,5.216
								c1.164,1.339,2.604-1.077,2.88-1.349c0,0,0.077,2.492,2.779,1.076C311.5,220.374,312.145,217.531,312.921,215.997z"/>
						</g>
					</g>
					<path style="fill:#383534;" d="M300.018,216.048l-0.875-0.157l0.95-5.287c0.086-0.472,0.25-0.914,0.488-1.315l1.581-2.649
						l0.764,0.456l-1.581,2.648c-0.184,0.309-0.311,0.65-0.377,1.017L300.018,216.048z"/>
					<path style="fill:#383534;" d="M303.014,218.948l-0.85-0.265l1.796-5.758c0.134-0.425,0.332-0.814,0.589-1.157l2.248-2.996
						l0.711,0.534l-2.248,2.997c-0.197,0.262-0.348,0.56-0.451,0.888L303.014,218.948z"/>
					<path style="fill:#383534;" d="M306.476,220.844l-0.836-0.303l1.819-5.011c0.135-0.375,0.326-0.723,0.567-1.032l2.336-3.008
						l0.701,0.545l-2.336,3.008c-0.183,0.236-0.329,0.501-0.433,0.789L306.476,220.844z"/>
				</g>
				<path style="fill:#FAB39B;" d="M314.824,209.343c0,0,2.102,4.857,4.132,5.072c4.975,0.526,3.521,2.363,1.356,2.975
					c-1.381,0.39-1.507,0.06-3.602-0.128c-2.095-0.189-4.853,0.775-4.853,0.775L314.824,209.343z"/>
			</g>
			<path style="fill:#383534;" d="M344.335,188.5l-2.802-4.748c-2.648-1.116-4.403-2.926-5.216-5.384
				c-2.049-6.185,2.468-14.435,3.311-15.894l-3.945-7.891l0.794-0.397l4.163,8.325l-0.126,0.21
				c-0.056,0.09-5.433,9.096-3.354,15.368c0.743,2.242,2.374,3.89,4.847,4.897l0.139,0.056l2.955,5.005L344.335,188.5z"/>
			<path style="fill:#383534;" d="M390.429,166.094c-1.308-1.667-4.925-6.049-4.961-6.093l0.685-0.566
				c0.037,0.044,3.66,4.435,4.975,6.11L390.429,166.094z"/>
			<path style="fill:#FAB39B;" d="M354.872,126.307l1.04,7.465c0,0-4.667,4.269-2.107,5.762c2.56,1.493,8.521,2.999,17.481-6.258
				l-3.809-21.811L354.872,126.307z"/>
			<path style="fill:#FAB39B;" d="M355.599,83.935c-21.473-0.382-17.986,23.754-17.947,24.362
				c0.738,11.265,9.221,23.366,14.249,22.504c15.234-2.614,14.583-18.059,14.583-18.059c0.154-0.958,4.396-11.061,4.407-12.057
				C371.017,88.999,368.148,84.158,355.599,83.935z"/>
			<g>
				<path style="fill:#FAB39B;" d="M373.714,112.323c-0.177,3.291-2.732,5.829-5.704,5.669c-2.973-0.16-5.239-2.959-5.061-6.25
					c0.178-3.291,2.731-5.829,5.704-5.669C371.626,106.234,373.892,109.032,373.714,112.323z"/>
				<path style="fill:#38261F;" d="M369.19,113.683c-0.504-0.735-2.081-0.747-2.646-0.69l-0.373,0.038l0.054-0.371
					c0.21-1.444,0.747-2.45,1.595-2.99c1.073-0.684,2.234-0.346,2.283-0.331l-0.168,0.56c-0.009-0.002-0.962-0.273-1.808,0.268
					c-0.628,0.403-1.052,1.15-1.264,2.223c0.705-0.015,2.194,0.066,2.808,0.961L369.19,113.683z"/>
			</g>
			<path style="fill:#FFFFFF;" d="M366.863,115.329c0.925-0.151,1.798,0.477,1.948,1.403c0.151,0.925-0.477,1.798-1.403,1.949
				c-0.925,0.151-1.798-0.477-1.948-1.403S365.937,115.479,366.863,115.329z"/>
			<path style="fill:#704C44;" d="M343.505,91.881c0,0,2.845,14.185,21.133,11.397l0.8,4.351l4.17-1.404
				c0,0,5.255-11.17,0.086-17.896c-3.274-4.261-10.386-4.796-11.597-4.908c-1.372-0.127-2.422-0.082-3.034-0.053
				c-2.221,0.105-7.605,0.323-12.28,3.874c-7.26,5.515-7.925,15.149-8.058,16.924C334.724,104.166,340.306,106.788,343.505,91.881z"
				/>
			<g>
				<path style="fill:#38261F;" d="M351.388,120.125c-1.417,0.231-2.382,0.02-2.468,0l0.152-0.657
					c0.174,0.039,4.303,0.917,8.184-3.701l0.516,0.434C355.492,118.914,353.107,119.845,351.388,120.125z"/>
				<path style="fill:#38261F;" d="M347.203,117.059c-0.073,0.004-1.786,0.098-2.615-1.098c-0.635-0.917-0.547-2.292,0.26-4.089
					l0.615,0.277c-0.693,1.542-0.804,2.727-0.322,3.426c0.609,0.883,2.007,0.812,2.021,0.811L347.203,117.059z"/>
				<path style="fill:#38261F;" d="M353.537,109.296c0.017,0.838-0.366,1.526-0.854,1.536c-0.489,0.01-0.898-0.662-0.915-1.5
					c-0.017-0.838,0.366-1.526,0.855-1.536C353.111,107.786,353.52,108.458,353.537,109.296z"/>
				<path style="fill:#38261F;" d="M341.688,110.917c0.015,0.764-0.333,1.391-0.778,1.399c-0.445,0.009-0.819-0.603-0.834-1.367
					c-0.015-0.764,0.333-1.391,0.778-1.399C341.3,109.541,341.673,110.153,341.688,110.917z"/>
				<path style="fill:#704C44;" d="M350.213,104.04c0.231-0.127,0.532-0.184,0.77-0.242c1.381-0.334,2.899-0.169,4.209,0.377
					c2.714,1.132-0.862,0.362-2.794,0.51c-0.534,0.041-1.074,0.074-1.61,0.046c-0.233-0.012-0.53-0.014-0.742-0.13
					c-0.22-0.12-0.171-0.281-0.012-0.433C350.085,104.119,350.146,104.077,350.213,104.04z"/>
				<path style="fill:#704C44;" d="M340.572,105.865c-0.165-0.054-0.365-0.037-0.525-0.032c-0.929,0.024-1.878,0.49-2.642,1.225
					c-1.584,1.522,0.6,0.111,1.857-0.186c0.347-0.082,0.697-0.172,1.037-0.312c0.147-0.06,0.337-0.127,0.458-0.268
					c0.125-0.146,0.071-0.269-0.051-0.36C340.664,105.902,340.619,105.881,340.572,105.865z"/>
			</g>
			<path style="fill:#DE937A;" d="M364.636,119.987c-2.016,6.435-7.073,8.834-9.282,9.775l0.464,3.329
				C363.719,129.958,364.636,119.987,364.636,119.987z"/>
			<path style="fill:#383534;" d="M364.473,182.988c-2.007,0-3.368-0.359-3.41-0.37l0.237-0.856
				c0.484,0.134,11.918,3.113,17.105-9.946l0.826,0.329C375.533,181.454,368.624,182.988,364.473,182.988z"/>
			<g>
				<path style="fill:#7894BA;" d="M415.479,177.73c0,0-17.808,6.833-27.368,8.292l7.561,10.535c0,0,0.397,0.8,7.775,2.249
					c13.026,2.559,23.385,1.592,25.483-5.32C431.465,185.131,415.479,177.73,415.479,177.73z"/>
				<g>
					<path style="fill:#FAB39B;" d="M389.369,200.99c0.5-0.086,5.691-2.889,5.994-3.721c0.396-1.088,3.216-11.454-9.093-10.839
						c-3.725,0.186-10.242,3.964-10.975,4.427c-3.684,2.327-0.856,3.527-0.856,3.527s-3.89,1.551-3.213,3.097
						c0.843,1.926,5.44-0.133,5.44-0.133s-3.49,1.495-2.345,3.053c0.947,1.289,5.055-0.277,5.449-0.235c0,0-1.39,1.983,1.733,2.288
						C383.957,202.695,387.653,201.284,389.369,200.99z"/>
					<polygon style="fill:#383534;" points="374.611,194.793 374.266,193.974 383.666,190.031 384.011,190.851 					"/>
					
						<rect x="376.275" y="195.004" transform="matrix(0.9184 -0.3955 0.3955 0.9184 -46.2301 166.6769)" style="fill:#383534;" width="9.622" height="0.89"/>
					
						<rect x="379.518" y="198.361" transform="matrix(0.9333 -0.3592 0.3592 0.9333 -45.8279 150.9473)" style="fill:#383534;" width="7.597" height="0.889"/>
				</g>
				<path style="fill:#FAB39B;" d="M390.834,186.962c0,0-3.687-1.412-5.777-4.504c-2.888-4.271-4.338-4.543-4.472-2.842
					c-0.113,1.438,0.262,2.877,1.021,3.763c1.825,2.13-0.514,4.802-0.514,4.802S389.967,188.286,390.834,186.962z"/>
				<path style="fill:#383534;" d="M419.647,183.367c-10.265-5.289-15.871-1.092-15.927-1.05l-0.547-0.7
					c0.243-0.19,6.071-4.607,16.882,0.96L419.647,183.367z"/>
			</g>
			<path style="fill:#FFFFFF;" d="M371.287,133.276l-0.32,0.068c-5.252,1.111-10.1,3.638-14.018,7.307l0,0c0,0,5.213,0,8.074,5.413
				l13.796-11.6c0,0-0.818-6.048-8.379-6.039L371.287,133.276z"/>
			<path style="fill:#FFFFFF;" d="M356.949,140.651l-1.037-6.879l-0.472-3.175c0,0-8.204,4.569-7.137,12.622
				C348.303,143.22,353.2,138.918,356.949,140.651z"/>
			<path style="fill:#FFFFFF;" d="M388.298,185.236l4.836-2.232c0.114-0.053,0.243-0.039,0.34,0.04
				c1.182,0.957,8.55,7.297,5.634,14.484c-0.039,0.095-0.122,0.17-0.221,0.199l-5.041,1.468c-0.207,0.06-0.414-0.085-0.418-0.3
				c-0.037-1.915-0.479-9.843-5.168-13.09C388.048,185.657,388.063,185.344,388.298,185.236z"/>
			<path style="fill:#704C44;" d="M331.616,96.752c-1.08-4.398,0.588-8.935,4.248-11.561c4.578-3.281,11.327-3.038,16.049,0.577
				l-0.539,0.706c-4.42-3.383-10.726-3.62-14.991-0.561c-3.363,2.413-4.896,6.584-3.903,10.627L331.616,96.752z"/>
			<path style="fill:#704C44;" d="M394.403,133.898c-2.245-5.378-4.682-10.777-7.243-16.048
				c-10.761-22.14-15.537-25.248-17.336-26.418c-5.107-3.32-11.426-4.875-18.801-4.622l-0.03-0.889
				c7.561-0.255,14.055,1.344,19.315,4.765c1.855,1.207,6.784,4.413,17.651,26.774c2.57,5.286,5.013,10.701,7.264,16.095
				L394.403,133.898z"/>
		</g>
		<g>
			<polygon style="fill:#96665B;" points="146.506,278.609 160.565,278.609 150.255,468.242 146.506,468.242 			"/>
			<polygon style="fill:#96665B;" points="418.941,278.609 404.882,278.609 415.192,468.242 418.941,468.242 			"/>
			<polygon style="fill:#96665B;" points="437.904,282.164 421.675,282.164 433.576,486.02 437.904,486.02 			"/>
			<polygon style="fill:#96665B;" points="127.38,282.164 143.609,282.164 131.707,486.02 127.38,486.02 			"/>
			<rect x="127.38" y="267.942" style="fill:#96665B;" width="310.525" height="18.963"/>
			<g>
				<g>
					<g>
						<g>
							<g>
								<path style="fill:#FAB39B;" d="M168.056,268.582c-0.081-0.586,0.775-5.973,0.354-6.438
									c-4.767-5.266-20.674-0.892-20.237,6.163c0.234,3.786,1.924,7.019,2.498,7.916c2.885,4.508,4.884,1.14,4.884,1.14
									s1.375,2.46,3.513,1.847c2.663-0.764,0.366-3.302,0.366-3.302s1.32,4.331,3.699,4.938c2.032,0.518,1.807-2.798,1.892-3.248
									c0,0,2.323,2.61,3.425-0.823C169.276,274.2,168.332,270.595,168.056,268.582z"/>
							</g>
						</g>
						<path style="fill:#383534;" d="M155.15,277.547l-2.631-5.777c-0.23-0.505-0.366-1.037-0.402-1.579l0.135-3.193l0.888,0.038
							l-0.136,3.144c0.029,0.381,0.141,0.819,0.324,1.222l2.631,5.777L155.15,277.547z"/>
						<path style="fill:#383534;" d="M159.968,278.241l-2.126-6.806c-0.153-0.491-0.222-0.992-0.203-1.492l0.17-4.424l0.888,0.035
							l-0.17,4.423c-0.014,0.397,0.04,0.799,0.163,1.191l2.126,6.806L159.968,278.241z"/>
						<path style="fill:#383534;" d="M164.594,277.712l-1.601-6.094c-0.118-0.449-0.165-0.906-0.141-1.358l0.248-4.495l0.888,0.049
							l-0.248,4.495c-0.02,0.359,0.019,0.724,0.114,1.083l1.601,6.094L164.594,277.712z"/>
					</g>
				</g>
				<path style="fill:#FAB39B;" d="M165.822,260.483c0,0,4.936,1.414,5.861,2.267c0.925,0.853,4.12,1.917,5.689,1.815
					c3.271-0.213,3.769,2.381-0.414,3.185c-3.18,0.611-4.634-0.441-5.985-0.299c-1.351,0.142-2.917,1.131-2.917,1.131
					L165.822,260.483z"/>
			</g>
			<g>
				<polygon style="fill:#704C44;" points="146.506,303.933 159.188,303.933 160.114,286.905 146.506,286.905 				"/>
				<polygon style="fill:#704C44;" points="418.941,286.905 405.332,286.905 406.258,303.933 418.941,303.933 				"/>
				<polygon style="fill:#704C44;" points="422.946,303.933 437.904,303.933 437.904,286.905 421.951,286.905 				"/>
				<polygon style="fill:#704C44;" points="143.332,286.905 127.38,286.905 127.38,303.933 142.338,303.933 				"/>
			</g>
		</g>
		<g>
			<rect x="375.042" y="252.775" style="fill:#6C8ECC;" width="57.076" height="15.166"/>
			<path style="fill:#383534;" d="M386.052,260.359c0,1.904-1.544,3.448-3.448,3.448c-1.904,0-3.448-1.544-3.448-3.448
				s1.544-3.448,3.448-3.448C384.509,256.911,386.052,258.454,386.052,260.359z"/>
			<path style="fill:none;stroke:#FFFFFF;stroke-miterlimit:10;" d="M386.052,260.359c0,1.904-1.544,3.448-3.448,3.448
				c-1.904,0-3.448-1.544-3.448-3.448s1.544-3.448,3.448-3.448C384.509,256.911,386.052,258.454,386.052,260.359z"/>
			<rect x="415.102" y="257.988" style="fill:#FFFFFF;" width="11.539" height="4.559"/>
		</g>
		<g>
			<rect x="375.042" y="222.443" style="fill:#FFC375;" width="57.076" height="15.166"/>
			<path style="fill:#383534;" d="M386.052,230.026c0,1.904-1.544,3.448-3.448,3.448c-1.904,0-3.448-1.544-3.448-3.448
				s1.544-3.448,3.448-3.448C384.509,226.578,386.052,228.122,386.052,230.026z"/>
			<path style="fill:none;stroke:#FFFFFF;stroke-miterlimit:10;" d="M386.052,230.026c0,1.904-1.544,3.448-3.448,3.448
				c-1.904,0-3.448-1.544-3.448-3.448s1.544-3.448,3.448-3.448C384.509,226.578,386.052,228.122,386.052,230.026z"/>
			<rect x="415.102" y="227.656" style="fill:#FFFFFF;" width="11.539" height="4.559"/>
		</g>
		<g>
			<rect x="365.847" y="237.609" style="fill:#FF9775;" width="57.076" height="15.166"/>
			<path style="fill:#383534;" d="M376.858,245.192c0,1.904-1.544,3.448-3.448,3.448s-3.448-1.544-3.448-3.448
				s1.544-3.448,3.448-3.448S376.858,243.288,376.858,245.192z"/>
			<path style="fill:none;stroke:#FFFFFF;stroke-miterlimit:10;" d="M376.858,245.192c0,1.904-1.544,3.448-3.448,3.448
				s-3.448-1.544-3.448-3.448s1.544-3.448,3.448-3.448S376.858,243.288,376.858,245.192z"/>
			<rect x="405.907" y="242.822" style="fill:#FFFFFF;" width="11.539" height="4.559"/>
		</g>
	</g>
</g>
</svg>
