<svg width="300" height="300" viewBox="0 0 300 300" fill="none" xmlns="http://www.w3.org/2000/svg">
<path d="M262.438 188.958C262.438 188.958 293.096 154.509 283.349 94.5587C273.601 34.6085 223.547 12.5249 190.331 24.0665C157.115 35.6081 149.644 55.6835 122.513 67.1723C95.382 78.6611 43.875 70.7651 18.1074 109.342C-7.65961 147.917 25.233 211.838 67.1082 251.919C108.983 291.999 215.88 266.902 262.438 188.958Z" fill="#FEB902"/>
<path opacity="0.7" d="M262.438 188.958C262.438 188.958 293.096 154.509 283.349 94.5587C273.601 34.6085 223.547 12.5249 190.331 24.0665C157.115 35.6081 149.644 55.6835 122.513 67.1723C95.382 78.6611 43.875 70.7651 18.1074 109.342C-7.65961 147.917 25.233 211.838 67.1082 251.919C108.983 291.999 215.88 266.902 262.438 188.958Z" fill="white"/>
<path d="M16.3123 285.75H277.04" stroke="#263238" stroke-miterlimit="10"/>
<path d="M51.1919 194.558L60.7199 285.633" stroke="#263238" stroke-width="2" stroke-miterlimit="10"/>
<path d="M59.0286 266.946L54.7932 262.472" stroke="#263238" stroke-width="2" stroke-miterlimit="10"/>
<path d="M56.0802 263.813C56.0802 263.813 56.2014 261.834 54.3948 260.22C53.3076 259.249 47.5866 256.842 47.0436 258.857C46.4526 261.049 52.3086 265.353 56.0802 263.813Z" fill="#FEB902" stroke="#263238" stroke-miterlimit="10"/>
<path d="M56.0802 263.813L50.6334 260.418" stroke="#263238" stroke-width="0.5" stroke-miterlimit="10"/>
<path d="M60.0911 277.126L55.8557 272.653" stroke="#263238" stroke-width="2" stroke-miterlimit="10"/>
<path d="M57.1427 273.993C57.1427 273.993 57.2639 272.015 55.4573 270.401C54.3701 269.43 48.6485 267.023 48.1061 269.038C47.5145 271.23 53.3711 275.534 57.1427 273.993Z" fill="#FEB902" stroke="#263238" stroke-miterlimit="10"/>
<path d="M57.1427 273.993L51.6959 270.599" stroke="#263238" stroke-width="0.5" stroke-miterlimit="10"/>
<path d="M56.436 242.102L52.2006 237.629" stroke="#263238" stroke-width="2" stroke-miterlimit="10"/>
<path d="M53.4875 238.969C53.4875 238.969 53.6087 236.99 51.8021 235.376C50.7149 234.405 44.9939 231.998 44.4509 234.014C43.8599 236.205 49.7159 240.51 53.4875 238.969Z" fill="#FEB902" stroke="#263238" stroke-miterlimit="10"/>
<path d="M53.4876 238.969L48.0402 235.575" stroke="#263238" stroke-width="0.5" stroke-miterlimit="10"/>
<path d="M57.4986 252.283L53.2632 247.81" stroke="#263238" stroke-width="2" stroke-miterlimit="10"/>
<path d="M54.5495 249.15C54.5495 249.15 54.6707 247.171 52.8641 245.557C51.7769 244.586 46.0559 242.179 45.5129 244.194C44.9219 246.386 50.7785 250.691 54.5495 249.15Z" fill="#FEB902" stroke="#263238" stroke-miterlimit="10"/>
<path d="M54.5495 249.15L49.1033 245.756" stroke="#263238" stroke-width="0.5" stroke-miterlimit="10"/>
<path d="M54.7098 225.564L50.4744 221.091" stroke="#263238" stroke-width="2" stroke-miterlimit="10"/>
<path d="M51.7614 222.431C51.7614 222.431 51.8826 220.453 50.0754 218.839C48.9882 217.868 43.2672 215.461 42.7242 217.476C42.1338 219.667 47.9898 223.972 51.7614 222.431Z" fill="#FEB902" stroke="#263238" stroke-miterlimit="10"/>
<path d="M51.7614 222.431L46.3146 219.037" stroke="#263238" stroke-width="0.5" stroke-miterlimit="10"/>
<path d="M52.9764 208.953L48.741 204.48" stroke="#263238" stroke-width="2" stroke-miterlimit="10"/>
<path d="M50.028 205.82C50.028 205.82 50.1492 203.841 48.342 202.228C47.2548 201.257 41.5338 198.85 40.9908 200.865C40.4004 203.057 46.2564 207.361 50.028 205.82Z" fill="#FEB902" stroke="#263238" stroke-miterlimit="10"/>
<path d="M50.028 205.82L44.5812 202.426" stroke="#263238" stroke-width="0.5" stroke-miterlimit="10"/>
<path d="M58.3164 260.922L61.5372 255.671" stroke="#263238" stroke-width="2" stroke-miterlimit="10"/>
<path d="M60.5544 257.248C60.5544 257.248 60.027 255.337 61.4622 253.384C62.3256 252.21 67.4268 248.674 68.3736 250.533C69.4044 252.556 64.563 257.977 60.5544 257.248Z" fill="#FEB902" stroke="#263238" stroke-miterlimit="10"/>
<path d="M60.5544 257.248L65.4594 252.56" stroke="#263238" stroke-width="0.5" stroke-miterlimit="10"/>
<path d="M55.5204 234.131L58.7412 228.879" stroke="#263238" stroke-width="2" stroke-miterlimit="10"/>
<path d="M57.7589 230.456C57.7589 230.456 57.2315 228.545 58.6667 226.593C59.5301 225.419 64.6307 221.882 65.5781 223.742C66.6083 225.764 61.7669 231.185 57.7589 230.456Z" fill="#FEB902" stroke="#263238" stroke-miterlimit="10"/>
<path d="M57.759 230.456L62.6634 225.769" stroke="#263238" stroke-width="0.5" stroke-miterlimit="10"/>
<path d="M54.2921 222.357L57.5123 217.105" stroke="#263238" stroke-width="2" stroke-miterlimit="10"/>
<path d="M56.5301 218.682C56.5301 218.682 56.0033 216.771 57.4379 214.819C58.3013 213.645 63.4025 210.108 64.3493 211.968C65.3795 213.99 60.5381 219.411 56.5301 218.682Z" fill="#FEB902" stroke="#263238" stroke-miterlimit="10"/>
<path d="M56.5302 218.682L61.4345 213.995" stroke="#263238" stroke-width="0.5" stroke-miterlimit="10"/>
<path d="M52.4904 205.096L55.7112 199.845" stroke="#263238" stroke-width="2" stroke-miterlimit="10"/>
<path d="M54.7284 201.422C54.7284 201.422 54.201 199.511 55.6362 197.559C56.4996 196.385 61.6008 192.848 62.5476 194.708C63.5784 196.73 58.737 202.151 54.7284 201.422Z" fill="#FEB902" stroke="#263238" stroke-miterlimit="10"/>
<path d="M54.7284 201.422L59.6334 196.734" stroke="#263238" stroke-width="0.5" stroke-miterlimit="10"/>
<path d="M51.1134 194.061C51.1134 194.061 50.5866 192.15 52.0212 190.197C52.8846 189.023 57.9858 185.487 58.9326 187.346C59.9628 189.369 55.1214 194.789 51.1134 194.061Z" fill="#FEB902" stroke="#263238" stroke-miterlimit="10"/>
<path d="M51.1134 194.061L56.0178 189.373" stroke="#263238" stroke-width="0.5" stroke-miterlimit="10"/>
<path d="M51.3972 194.263C51.3972 194.263 49.4412 194.587 47.6508 192.955C46.5732 191.973 43.5912 186.53 45.54 185.783C47.6592 184.97 52.5426 190.353 51.3972 194.263Z" fill="#FEB902" stroke="#263238" stroke-miterlimit="10"/>
<path d="M51.3972 194.263L47.25 188.894" stroke="#263238" stroke-width="0.5" stroke-miterlimit="10"/>
<path d="M75.8327 206.886L67.9529 285.633" stroke="#263238" stroke-width="2" stroke-miterlimit="10"/>
<path d="M68.5967 279.337L65.3735 274.087" stroke="#263238" stroke-width="2" stroke-miterlimit="10"/>
<path d="M66.3563 275.664C66.3563 275.664 66.8825 273.752 65.4467 271.801C64.5827 270.627 59.4797 267.093 58.5335 268.953C57.5045 270.977 62.3489 276.395 66.3563 275.664Z" fill="#FEB902" stroke="#263238" stroke-miterlimit="10"/>
<path d="M66.3564 275.664L61.7256 271.22" stroke="#263238" stroke-width="0.5" stroke-miterlimit="10"/>
<path d="M71.175 254.492L67.9518 249.242" stroke="#263238" stroke-width="2" stroke-miterlimit="10"/>
<path d="M68.9346 250.819C68.9346 250.819 69.4608 248.907 68.0244 246.956C67.1604 245.782 62.0574 242.249 61.1112 244.109C60.0822 246.132 64.9272 251.55 68.9346 250.819Z" fill="#FEB902" stroke="#263238" stroke-miterlimit="10"/>
<path d="M68.9345 250.818L64.3037 246.375" stroke="#263238" stroke-width="0.5" stroke-miterlimit="10"/>
<path d="M70.1183 264.673L66.8951 259.424" stroke="#263238" stroke-width="2" stroke-miterlimit="10"/>
<path d="M67.8786 261C67.8786 261 68.4048 259.088 66.969 257.137C66.105 255.963 61.002 252.43 60.0558 254.29C59.0262 256.313 63.8706 261.731 67.8786 261Z" fill="#FEB902" stroke="#263238" stroke-miterlimit="10"/>
<path d="M67.8786 261L63.2472 256.557" stroke="#263238" stroke-width="0.5" stroke-miterlimit="10"/>
<path d="M72.8909 237.953L69.6677 232.703" stroke="#263238" stroke-width="2" stroke-miterlimit="10"/>
<path d="M70.6511 234.28C70.6511 234.28 71.1773 232.368 69.7409 230.417C68.8769 229.243 63.7739 225.709 62.8277 227.57C61.7987 229.592 66.6431 235.01 70.6511 234.28Z" fill="#FEB902" stroke="#263238" stroke-miterlimit="10"/>
<path d="M70.6512 234.279L66.0198 229.836" stroke="#263238" stroke-width="0.5" stroke-miterlimit="10"/>
<path d="M74.6147 221.341L71.3915 216.091" stroke="#263238" stroke-width="2" stroke-miterlimit="10"/>
<path d="M72.3743 217.668C72.3743 217.668 72.9005 215.756 71.4647 213.805C70.6007 212.632 65.4977 209.098 64.5515 210.958C63.5225 212.981 68.3669 218.399 72.3743 217.668Z" fill="#FEB902" stroke="#263238" stroke-miterlimit="10"/>
<path d="M72.3743 217.668L67.7435 213.225" stroke="#263238" stroke-width="0.5" stroke-miterlimit="10"/>
<path d="M69.1404 273.295L73.3734 268.82" stroke="#263238" stroke-width="2" stroke-miterlimit="10"/>
<path d="M72.0876 270.161C72.0876 270.161 71.9652 268.182 73.7712 266.567C74.8578 265.596 80.5776 263.185 81.1218 265.2C81.7134 267.391 75.8598 271.699 72.0876 270.161Z" fill="#FEB902" stroke="#263238" stroke-miterlimit="10"/>
<path d="M72.0875 270.161L77.8517 266.583" stroke="#263238" stroke-width="0.5" stroke-miterlimit="10"/>
<path d="M71.9208 246.502L76.1538 242.027" stroke="#263238" stroke-width="2" stroke-miterlimit="10"/>
<path d="M74.8673 243.368C74.8673 243.368 74.7449 241.389 76.5509 239.774C77.6375 238.803 83.3573 236.393 83.9015 238.407C84.4931 240.598 78.6401 244.906 74.8673 243.368Z" fill="#FEB902" stroke="#263238" stroke-miterlimit="10"/>
<path d="M74.8674 243.368L80.6322 239.79" stroke="#263238" stroke-width="0.5" stroke-miterlimit="10"/>
<path d="M73.1429 234.728L77.3753 230.252" stroke="#263238" stroke-width="2" stroke-miterlimit="10"/>
<path d="M76.0895 231.593C76.0895 231.593 75.9671 229.614 77.7731 227.999C78.8597 227.028 84.5795 224.618 85.1237 226.632C85.7153 228.824 79.8617 233.131 76.0895 231.593Z" fill="#FEB902" stroke="#263238" stroke-miterlimit="10"/>
<path d="M76.0896 231.593L81.8538 228.015" stroke="#263238" stroke-width="0.5" stroke-miterlimit="10"/>
<path d="M74.934 217.466L79.1664 212.99" stroke="#263238" stroke-width="2" stroke-miterlimit="10"/>
<path d="M77.8805 214.331C77.8805 214.331 77.7581 212.353 79.5641 210.738C80.6507 209.767 86.3705 207.356 86.9147 209.371C87.5063 211.562 81.6527 215.87 77.8805 214.331Z" fill="#FEB902" stroke="#263238" stroke-miterlimit="10"/>
<path d="M77.8805 214.331L83.6453 210.754" stroke="#263238" stroke-width="0.5" stroke-miterlimit="10"/>
<path d="M75.8579 206.384C75.8579 206.384 75.7355 204.405 77.5415 202.79C78.6281 201.819 84.3479 199.409 84.8921 201.423C85.4843 203.614 79.6307 207.921 75.8579 206.384Z" fill="#FEB902" stroke="#263238" stroke-miterlimit="10"/>
<path d="M75.8579 206.384L81.6227 202.806" stroke="#263238" stroke-width="0.5" stroke-miterlimit="10"/>
<path d="M76.0943 206.64C76.0943 206.64 74.1137 206.554 72.6971 204.589C71.8451 203.406 70.0475 197.465 72.1085 197.136C74.3501 196.776 78.0197 203.049 76.0943 206.64Z" fill="#FEB902" stroke="#263238" stroke-miterlimit="10"/>
<path d="M76.0943 206.64L73.1411 200.532" stroke="#263238" stroke-width="0.5" stroke-miterlimit="10"/>
<path d="M65.187 170.431L64.6044 285.767" stroke="#263238" stroke-width="2" stroke-miterlimit="10"/>
<path d="M65.2769 266.62L61.5293 261.731" stroke="#263238" stroke-width="2" stroke-miterlimit="10"/>
<path d="M62.6699 263.197C62.6699 263.197 62.9957 261.242 61.3661 259.449C60.3857 258.371 54.9449 255.383 54.1961 257.33C53.3807 259.449 58.7585 264.338 62.6699 263.197Z" fill="#FEB902" stroke="#263238" stroke-miterlimit="10"/>
<path d="M62.6699 263.197L57.6047 259.257" stroke="#263238" stroke-width="0.5" stroke-miterlimit="10"/>
<path d="M65.2769 245.344L61.5293 240.455" stroke="#263238" stroke-width="2" stroke-miterlimit="10"/>
<path d="M62.6699 241.922C62.6699 241.922 62.9957 239.967 61.3661 238.174C60.3857 237.096 54.9449 234.108 54.1961 236.056C53.3807 238.174 58.7585 243.063 62.6699 241.922Z" fill="#FEB902" stroke="#263238" stroke-miterlimit="10"/>
<path d="M62.6699 241.922L57.6047 237.981" stroke="#263238" stroke-width="0.5" stroke-miterlimit="10"/>
<path d="M65.2769 220.366L61.5293 215.478" stroke="#263238" stroke-width="2" stroke-miterlimit="10"/>
<path d="M62.6699 216.944C62.6699 216.944 62.9957 214.988 61.3661 213.196C60.3857 212.117 54.9449 209.129 54.1961 211.077C53.3807 213.196 58.7585 218.084 62.6699 216.944Z" fill="#FEB902" stroke="#263238" stroke-miterlimit="10"/>
<path d="M62.6699 216.944L57.6047 213.002" stroke="#263238" stroke-width="0.5" stroke-miterlimit="10"/>
<path d="M65.2769 203.738L61.5293 198.849" stroke="#263238" stroke-width="2" stroke-miterlimit="10"/>
<path d="M62.6699 200.316C62.6699 200.316 62.9957 198.361 61.3661 196.568C60.3857 195.489 54.9449 192.502 54.1961 194.449C53.3807 196.568 58.7585 201.457 62.6699 200.316Z" fill="#FEB902" stroke="#263238" stroke-miterlimit="10"/>
<path d="M62.6699 200.316L57.6047 196.375" stroke="#263238" stroke-width="0.5" stroke-miterlimit="10"/>
<path d="M65.2769 187.037L61.5293 182.149" stroke="#263238" stroke-width="2" stroke-miterlimit="10"/>
<path d="M62.6699 183.615C62.6699 183.615 62.9957 181.66 61.3661 179.867C60.3857 178.788 54.9449 175.801 54.1961 177.748C53.3807 179.867 58.7585 184.756 62.6699 183.615Z" fill="#FEB902" stroke="#263238" stroke-miterlimit="10"/>
<path d="M62.6699 183.615L57.6047 179.674" stroke="#263238" stroke-width="0.5" stroke-miterlimit="10"/>
<path d="M65.1947 273.116L68.9423 268.228" stroke="#263238" stroke-width="2" stroke-miterlimit="10"/>
<path d="M67.8017 269.694C67.8017 269.694 67.4759 267.739 69.1055 265.946C70.0859 264.867 75.5267 261.88 76.2755 263.827C77.0903 265.946 71.7125 270.835 67.8017 269.694Z" fill="#FEB902" stroke="#263238" stroke-miterlimit="10"/>
<path d="M67.8018 269.694L73.1664 265.541" stroke="#263238" stroke-width="0.5" stroke-miterlimit="10"/>
<path d="M65.1947 239.279L68.9423 234.391" stroke="#263238" stroke-width="2" stroke-miterlimit="10"/>
<path d="M67.8017 235.857C67.8017 235.857 67.4759 233.902 69.1055 232.109C70.0859 231.031 75.5267 228.043 76.2755 229.99C77.0903 232.109 71.7125 236.998 67.8017 235.857Z" fill="#FEB902" stroke="#263238" stroke-miterlimit="10"/>
<path d="M67.8018 235.857L73.1664 231.704" stroke="#263238" stroke-width="0.5" stroke-miterlimit="10"/>
<path d="M65.1947 222.578L68.9423 217.689" stroke="#263238" stroke-width="2" stroke-miterlimit="10"/>
<path d="M67.8017 219.156C67.8017 219.156 67.4759 217.201 69.1055 215.408C70.0859 214.33 75.5267 211.342 76.2755 213.29C77.0903 215.408 71.7125 220.297 67.8017 219.156Z" fill="#FEB902" stroke="#263238" stroke-miterlimit="10"/>
<path d="M67.8018 219.156L73.1664 215.003" stroke="#263238" stroke-width="0.5" stroke-miterlimit="10"/>
<path d="M65.1947 200.505L68.9423 195.616" stroke="#263238" stroke-width="2" stroke-miterlimit="10"/>
<path d="M67.8017 197.083C67.8017 197.083 67.4759 195.127 69.1055 193.334C70.0859 192.256 75.5267 189.268 76.2755 191.216C77.0903 193.334 71.7125 198.223 67.8017 197.083Z" fill="#FEB902" stroke="#263238" stroke-miterlimit="10"/>
<path d="M67.8018 197.083L73.1664 192.929" stroke="#263238" stroke-width="0.5" stroke-miterlimit="10"/>
<path d="M65.1947 183.151L68.9423 178.262" stroke="#263238" stroke-width="2" stroke-miterlimit="10"/>
<path d="M67.8017 179.728C67.8017 179.728 67.4759 177.773 69.1055 175.98C70.0859 174.901 75.5267 171.914 76.2755 173.861C77.0903 175.981 71.7125 180.869 67.8017 179.728Z" fill="#FEB902" stroke="#263238" stroke-miterlimit="10"/>
<path d="M67.8016 179.728L73.1662 175.575" stroke="#263238" stroke-width="0.5" stroke-miterlimit="10"/>
<path d="M64.9697 172.031C64.9697 172.031 64.6439 170.076 66.2735 168.283C67.2539 167.205 72.6947 164.217 73.4435 166.164C74.2589 168.283 68.8811 173.172 64.9697 172.031Z" fill="#FEB902" stroke="#263238" stroke-miterlimit="10"/>
<path d="M64.9697 172.031L70.3349 167.878" stroke="#263238" stroke-width="0.5" stroke-miterlimit="10"/>
<path d="M65.2313 172.262C65.2313 172.262 63.2525 172.381 61.6403 170.573C60.6707 169.484 58.2695 163.761 60.2855 163.22C62.4785 162.632 66.7763 168.493 65.2313 172.262Z" fill="#FEB902" stroke="#263238" stroke-miterlimit="10"/>
<path d="M65.2313 172.262L61.6637 166.491" stroke="#263238" stroke-width="0.5" stroke-miterlimit="10"/>
<path d="M270.211 33.4775H173.509V167.759H270.211V33.4775Z" stroke="#263238" stroke-miterlimit="10"/>
<path d="M266.405 38.7612H177.314V162.476H266.405V38.7612Z" stroke="#263238" stroke-miterlimit="10"/>
<path d="M241.989 72.6665H201.731V128.57H241.989V72.6665Z" stroke="#263238" stroke-miterlimit="10"/>
<path d="M159.784 68.0323C159.784 68.0323 153.691 66.8563 148.345 75.3013C143 83.7463 143.321 95.0779 143.642 105.875C143.963 116.672 143.365 130.658 143.044 135.575C142.723 140.493 137.365 145.229 137.365 145.229L213.875 147.031C213.875 147.031 209.972 134.703 204.092 121.661C198.213 108.62 193.136 87.5941 193.136 87.5941C193.136 87.5941 200.619 89.3047 199.978 85.0285C199.336 80.7523 195.06 75.9421 183.301 69.8485C171.542 63.7561 163.739 63.9697 159.784 68.0323Z" fill="#263238" stroke="#263238" stroke-miterlimit="10"/>
<path d="M131.277 285.599L134.288 263.638L224.612 256.908L232.227 285.776L131.277 285.599Z" fill="#263238" stroke="#263238" stroke-miterlimit="10"/>
<path d="M219.628 231.923C216.522 225.712 214.501 220.163 213.691 217.991C215.278 214.159 220.619 204.389 220.619 204.389L223.789 198.684C223.789 198.684 223.201 196.925 223.336 192.258C223.471 187.591 223.154 185.056 223.154 185.056C223.154 185.056 226.483 157.957 226.483 154.153C226.483 150.35 226.483 145.913 225.532 144.644C224.581 143.377 218.083 138.94 204.772 134.66C191.46 130.382 187.022 130.223 186.071 129.906C185.12 129.589 168.322 131.015 168.322 131.015C168.322 131.015 142.015 135.453 140.747 136.879C139.48 138.305 144.234 208.193 144.234 208.193C144.234 208.193 142.259 213.3 141.791 217.131C139.549 223.509 132.628 243.799 131.832 253.476C130.881 265.045 131.039 268.373 131.039 268.373C131.039 268.373 151.958 277.882 162.259 279.941C172.56 282.002 181.593 283.745 181.593 283.745L185.08 274.395L189.517 283.586C189.517 283.586 207.266 276.931 213.446 272.493C219.627 268.055 227.709 257.755 227.709 257.755C227.709 257.755 223.431 239.53 219.628 231.923Z" fill="#FEB902" stroke="#263238" stroke-miterlimit="10"/>
<path d="M216.019 146.405C216.019 146.405 210.584 153.586 209.419 157.274" stroke="#263238" stroke-miterlimit="10"/>
<path d="M191.145 220.656C191.145 220.656 198.992 222.428 200.51 223.567C202.029 224.706 207.978 226.478 210.509 226.478C213.04 226.478 216.964 225.845 216.964 225.845L212.914 221.289C212.914 221.289 197.22 219.011 194.815 219.011C192.41 219.01 191.145 220.656 191.145 220.656Z" fill="#263238" stroke="#263238" stroke-miterlimit="10"/>
<path d="M184.085 263.091C184.413 266.36 184.622 268.517 184.622 268.712" stroke="#263238" stroke-miterlimit="10"/>
<path d="M180.07 224.111C180.07 224.111 182.476 247.211 183.79 260.168" stroke="#263238" stroke-miterlimit="10"/>
<path d="M184.1 186.181C184.171 186.79 184.247 187.324 184.328 187.749C184.962 191.077 184.169 195.197 182.585 196.307C181 197.416 179.574 202.329 180.208 202.963" stroke="#263238" stroke-miterlimit="10"/>
<path d="M183.377 174.438C183.377 174.438 183.527 179.159 183.827 183.19" stroke="#263238" stroke-miterlimit="10"/>
<path d="M172.389 125.023C172.389 125.023 170.261 124.89 169.73 125.554C169.198 126.219 165.076 131.272 164.944 132.335C164.81 133.399 164.545 149.752 164.545 151.082C164.545 152.412 166.406 156.666 167.336 154.273C168.267 151.879 168.932 148.822 169.862 147.226C170.793 145.631 173.186 148.955 173.186 148.955L188.875 153.21C188.875 153.21 193.928 150.285 194.858 148.423C195.789 146.562 195.656 154.008 196.853 154.273C198.049 154.539 199.113 152.545 197.917 148.024C196.72 143.504 196.986 134.862 195.257 129.676C193.529 124.491 192.332 124.092 189.54 123.959C186.748 123.826 172.389 125.023 172.389 125.023Z" fill="#FEB902" stroke="#263238" stroke-miterlimit="10"/>
<path d="M170.26 115.359C170.26 115.359 171.329 127.973 171.329 130.111C171.329 132.249 170.794 141.015 172.933 146.787C175.07 152.56 181.164 171.481 182.447 172.23C183.73 172.978 185.119 171.16 187.471 165.067C189.823 158.974 195.168 149.995 194.206 141.015C193.244 132.036 189.074 114.183 189.074 114.183L170.26 115.359Z" fill="white" stroke="#263238" stroke-miterlimit="10"/>
<path d="M183.344 126.407L171.324 131.284L170.627 123.62L183.344 126.407Z" fill="#263238" stroke="#263238" stroke-miterlimit="10"/>
<path d="M174.698 151.807C177.394 159.638 181.43 171.636 182.446 172.229C183.729 172.977 185.119 171.16 187.471 165.067C188.71 161.856 190.779 157.845 192.32 153.454C184.456 156.808 178.171 154.136 174.698 151.807Z" fill="#263238" stroke="#263238" stroke-miterlimit="10"/>
<path d="M157.114 103.191C157.114 103.191 163.762 119.62 166.706 121.994C169.649 124.368 179.716 128.167 183.23 127.882C186.743 127.597 190.352 125.318 191.302 123.133C192.251 120.949 196.24 115.346 195.575 110.788C194.91 106.229 190.542 89.5153 190.542 89.5153C190.542 89.5153 181.615 88.1857 175.442 86.0965C169.27 84.0073 165.756 78.3091 165.756 78.3091C165.756 78.3091 164.617 89.3251 161.957 95.3077C159.298 101.292 157.114 103.191 157.114 103.191Z" fill="white" stroke="#263238" stroke-miterlimit="10"/>
<path d="M180.166 98.6526C180.166 98.6526 181.081 103.621 182.78 104.666C184.48 105.712 185.134 106.235 184.48 107.412C183.826 108.589 181.865 109.242 181.343 109.242" stroke="#263238" stroke-miterlimit="10"/>
<path d="M174.806 111.726C174.806 111.726 178.728 115.517 182.65 114.863" stroke="#263238" stroke-miterlimit="10"/>
<path d="M165.243 99.2772C165.243 99.2772 169.567 96.756 172.862 98.028" stroke="#263238" stroke-miterlimit="10"/>
<path d="M180.503 97.8523C180.503 97.8523 179.47 93.4333 184.655 92.1895" stroke="#263238" stroke-miterlimit="10"/>
<path d="M174.919 103.188C175.304 104.245 175.093 105.292 174.448 105.527C173.804 105.762 172.969 105.094 172.585 104.037C172.2 102.98 172.411 101.933 173.056 101.698C173.701 101.464 174.535 102.131 174.919 103.188Z" fill="#263238"/>
<path d="M186.743 99.114C187.127 100.171 186.917 101.218 186.272 101.453C185.627 101.687 184.793 101.02 184.408 99.963C184.024 98.9058 184.235 97.8588 184.879 97.6242C185.524 97.3902 186.358 98.0568 186.743 99.114Z" fill="#263238"/>
<path d="M157.114 103.191L154.72 109.963C154.72 109.963 157.285 113.705 158.782 114.346C160.278 114.988 161.989 113.598 161.989 113.598L157.114 103.191Z" fill="white" stroke="#263238" stroke-miterlimit="10"/>
<path d="M156.437 203.438C156.437 203.438 188.29 208.668 195.422 208.668C202.553 208.668 208.892 208.351 209.684 208.034C210.477 207.717 220.461 206.766 221.253 208.192C222.046 209.618 221.728 212.312 221.728 212.312C221.728 212.312 222.362 214.848 222.203 217.067C222.045 219.286 220.936 220.712 220.936 220.712C220.936 220.712 221.569 221.821 220.619 223.089C219.668 224.357 219.509 225.466 217.766 225.783C216.023 226.1 212.061 225.149 211.427 224.99C210.793 224.832 204.137 224.039 202.394 223.089C200.651 222.138 199.542 221.663 198.591 221.346C197.64 221.029 194.629 220.712 194.629 220.712C194.629 220.712 163.568 222.614 158.972 222.297C154.376 221.98 151.524 221.98 151.524 221.98L156.437 203.438Z" fill="white" stroke="#263238" stroke-miterlimit="10"/>
<path d="M201.381 196.97C201.381 196.97 203.951 208.216 206.201 211.536C208.45 214.856 213.269 219.783 217.661 218.069C222.052 216.355 223.23 216.784 223.979 208.644C224.729 200.504 224.515 194.507 223.337 192.257C222.159 190.008 220.124 187.759 220.124 187.759L201.381 196.97Z" fill="#FEB902" stroke="#263238" stroke-miterlimit="10"/>
<path d="M204.38 138.387C204.38 138.387 198.382 133.139 195.383 130.783C192.385 128.426 188.422 124.678 186.28 122.429C184.138 120.18 182.853 119.002 182.639 121.037C182.425 123.072 185.53 127.891 186.173 128.748C186.816 129.605 190.457 133.675 190.457 133.675C190.457 133.675 186.173 136.673 185.102 137.53C184.031 138.387 184.031 139.351 183.71 141.814C183.389 144.277 184.567 145.348 186.388 145.884C188.209 146.42 189.708 145.241 189.708 145.241C189.708 145.241 193.992 148.133 196.669 148.562C199.347 148.99 201.81 151.025 201.81 151.025C201.81 151.025 200.953 190.652 200.846 191.616C200.738 192.58 206.522 192.365 212.091 190.545C217.66 188.724 219.16 186.583 219.16 186.583C219.16 186.583 211.984 152.525 210.163 147.705C208.342 142.885 206.414 139.565 204.38 138.387Z" fill="white" stroke="#263238" stroke-miterlimit="10"/>
<path d="M189.707 145.241L186.922 142.992C186.922 142.992 186.815 143.956 186.28 144.277" fill="white"/>
<path d="M189.707 145.241L186.922 142.992C186.922 142.992 186.815 143.956 186.28 144.277" stroke="#263238" stroke-miterlimit="10"/>
<path d="M198.917 189.045C198.917 189.045 199.239 197.613 200.309 198.256C201.38 198.898 209.52 196.97 213.804 195.471C218.088 193.972 221.194 192.151 221.301 190.759C221.408 189.367 220.337 185.939 219.587 184.118C218.838 182.297 217.767 182.726 217.338 183.154C216.91 183.583 213.054 184.975 207.271 186.474C201.488 187.974 198.811 187.438 198.917 189.045Z" fill="#FEB902" stroke="#263238" stroke-miterlimit="10"/>
<path d="M146.305 171.07C146.108 168.897 145.941 166.909 145.819 165.246Z" fill="#FEB902"/>
<path d="M146.305 171.07C146.108 168.897 145.941 166.909 145.819 165.246" stroke="#263238" stroke-miterlimit="10"/>
<path d="M149.464 135.294C149.464 135.294 133.141 136.245 132.507 138.939C131.873 141.633 129.971 163.027 129.338 184.105C128.704 205.182 129.813 220.554 131.239 221.029C132.665 221.505 148.988 221.505 148.988 221.505L151.049 203.122L149.306 200.428C149.306 200.428 147.647 179.563 146.555 168.168" fill="#FEB902"/>
<path d="M149.464 135.294C149.464 135.294 133.141 136.245 132.507 138.939C131.873 141.633 129.971 163.027 129.338 184.105C128.704 205.182 129.813 220.554 131.239 221.029C132.665 221.505 148.988 221.505 148.988 221.505L151.049 203.122L149.306 200.428C149.306 200.428 147.647 179.563 146.555 168.168" stroke="#263238" stroke-miterlimit="10"/>
<path d="M147.721 199.635C147.721 199.635 144.551 220.395 144.076 221.346C143.6 222.297 143.283 224.04 145.185 223.882C147.087 223.723 152.317 225.15 152.95 223.723C153.584 222.297 158.656 206.767 158.18 204.548C157.705 202.329 155.486 201.537 154.693 201.22C153.901 200.903 148.672 198.843 147.721 199.635Z" fill="#FEB902" stroke="#263238" stroke-miterlimit="10"/>
<path d="M140.768 190.518C140.052 189.605 139.472 188.887 139.163 188.542" stroke="#263238" stroke-miterlimit="10"/>
<path d="M136.469 197.1L147.721 199.635C147.721 199.635 144.788 195.725 142.308 192.502" stroke="#263238" stroke-miterlimit="10"/>
<path d="M151.562 116.267C151.562 116.267 146.915 143.304 146.735 155.736C146.555 168.168 151.562 175.328 158.377 177.6C165.191 179.872 171.154 175.896 169.735 173.909C168.315 171.921 162.636 175.897 160.648 168.797C158.66 161.699 165.759 155.736 166.043 141.822C166.327 127.909 166.043 124.217 166.043 124.217" fill="#263238"/>
<path d="M151.562 116.267C151.562 116.267 146.915 143.304 146.735 155.736C146.555 168.168 151.562 175.328 158.377 177.6C165.191 179.872 171.154 175.896 169.735 173.909C168.315 171.921 162.636 175.897 160.648 168.797C158.66 161.699 165.759 155.736 166.043 141.822C166.327 127.909 166.043 124.217 166.043 124.217" stroke="#263238" stroke-miterlimit="10"/>
<path d="M140.095 51.5868C140.095 42.3018 132.568 34.7748 123.283 34.7748C120.849 34.7748 118.539 35.2962 116.451 36.2262C113.667 30.786 108.01 27.06 101.48 27.06C97.8341 27.06 94.4621 28.224 91.7075 30.1962C89.3015 23.8548 83.1719 19.3452 75.9869 19.3452C73.4141 19.3452 70.977 19.9254 68.7966 20.9586C65.7509 17.8914 61.5311 15.9912 56.8673 15.9912C47.5823 15.9912 40.0553 23.5182 40.0553 32.8032C40.0553 34.1898 40.2263 35.5356 40.5431 36.8244C31.6217 40.0956 25.2563 48.6636 25.2563 58.7184C25.2563 65.691 28.3211 71.9442 33.1727 76.2162C32.6351 77.8614 32.3405 79.6164 32.3405 81.441C32.3405 90.726 39.8675 98.253 49.1525 98.253C53.2253 98.253 56.9591 96.804 59.8685 94.395C63.3521 102.884 71.6957 108.866 81.4409 108.866C90.3383 108.866 98.0693 103.88 101.998 96.5508C104.169 97.4352 106.543 97.926 109.031 97.926C119.338 97.926 127.693 89.571 127.693 79.2648C127.693 75.1992 126.388 71.4402 124.181 68.3754C133.048 67.908 140.095 60.5706 140.095 51.5868Z" fill="#263238" stroke="#263238" stroke-miterlimit="10"/>
<path d="M128.576 104.282C132.217 102.504 134.078 98.8294 132.733 96.0738C131.388 93.3182 127.345 92.5255 123.704 94.3031C120.063 96.0807 118.202 99.7556 119.547 102.511C120.892 105.267 124.935 106.059 128.576 104.282Z" fill="#263238" stroke="#263238" stroke-miterlimit="10"/>
<path d="M128.071 112.555C129.079 114.62 132.108 115.214 134.836 113.882C137.564 112.551 138.959 109.797 137.951 107.732C136.943 105.668 133.915 105.074 131.186 106.405C128.458 107.737 127.064 110.491 128.071 112.555Z" fill="#263238" stroke="#263238" stroke-miterlimit="10"/>
<path d="M142.078 48.0175C142.078 38.7325 134.551 31.2055 125.266 31.2055C122.832 31.2055 120.522 31.7269 118.434 32.6569C115.65 27.2167 109.993 23.4907 103.463 23.4907C99.8172 23.4907 96.4452 24.6553 93.6906 26.6269C91.2846 20.2855 85.155 15.7759 77.97 15.7759C75.3972 15.7759 72.96 16.3561 70.7796 17.3893C67.734 14.3221 63.5142 12.4219 58.8504 12.4219C49.5654 12.4219 42.0384 19.9489 42.0384 29.2339C42.0384 30.6205 42.2094 31.9663 42.5262 33.2551C33.6048 36.5263 27.2394 45.0943 27.2394 55.1491C27.2394 62.1217 30.3042 68.3749 35.1558 72.6469C34.6182 74.2921 34.3236 76.0471 34.3236 77.8717C34.3236 87.1567 41.8506 94.6837 51.1356 94.6837C55.2084 94.6837 58.9422 93.2347 61.8516 90.8257C65.3352 99.3151 73.6788 105.296 83.4234 105.296C92.3208 105.296 100.052 100.31 103.981 92.9815C106.151 93.8659 108.525 94.3567 111.014 94.3567C121.32 94.3567 129.675 86.0017 129.675 75.6955C129.675 71.6299 128.371 67.8709 126.164 64.8061C135.031 64.3387 142.078 57.0013 142.078 48.0175Z" fill="white" stroke="#263238" stroke-miterlimit="10"/>
<path d="M130.558 100.712C134.2 98.9339 136.061 95.2591 134.715 92.5035C133.37 89.7479 129.328 88.9551 125.687 90.7328C122.046 92.5104 120.184 96.1852 121.53 98.9408C122.875 101.696 126.917 102.489 130.558 100.712Z" fill="white" stroke="#263238" stroke-miterlimit="10"/>
<path d="M130.054 108.987C131.062 111.051 134.091 111.645 136.819 110.314C139.547 108.982 140.942 106.228 139.934 104.164C138.926 102.099 135.898 101.505 133.169 102.837C130.441 104.168 129.047 106.921 130.054 108.987Z" fill="white" stroke="#263238" stroke-miterlimit="10"/>
<path d="M99.7542 51.4704C99.7542 41.0826 90.975 32.745 80.4318 33.4728C71.6412 34.0794 64.4754 41.1276 63.7362 49.9086C63.3156 54.9048 64.9344 59.5182 67.8498 63.0126C70.5072 66.198 71.9598 70.2168 71.9598 74.3652V76.8371H91.4646V74.3652C91.4646 70.221 92.9094 66.2034 95.5662 63.0234C98.1798 59.8938 99.7542 55.8666 99.7542 51.4704Z" fill="#FEB902" stroke="#263238" stroke-miterlimit="10"/>
<path opacity="0.44" d="M81.6983 64.1447C88.0179 64.1447 93.1409 59.0217 93.1409 52.7021C93.1409 46.3825 88.0179 41.2595 81.6983 41.2595C75.3788 41.2595 70.2557 46.3825 70.2557 52.7021C70.2557 59.0217 75.3788 64.1447 81.6983 64.1447Z" fill="white"/>
<path d="M91.464 76.842H71.9592V81.6666H91.464V76.842Z" fill="#7D7D7D" stroke="#263238" stroke-miterlimit="10" stroke-linecap="round" stroke-linejoin="round"/>
<path d="M88.629 86.5038H74.7942C73.2282 86.5038 71.9592 85.2342 71.9592 83.6688V81.6792H91.464V83.6688C91.4646 85.2342 90.195 86.5038 88.629 86.5038Z" fill="#7D7D7D" stroke="#263238" stroke-miterlimit="10" stroke-linecap="round" stroke-linejoin="round"/>
<path d="M85.1568 91.3224H78.2664C76.1424 91.3224 74.4204 89.6004 74.4204 87.4764V86.4978H89.0028V87.4764C89.0028 89.6004 87.2814 91.3224 85.1568 91.3224Z" fill="white" stroke="#263238" stroke-miterlimit="10" stroke-linecap="round" stroke-linejoin="round"/>
<path d="M102.315 51.5652H110.579" stroke="#263238" stroke-miterlimit="10" stroke-linecap="round" stroke-linejoin="round"/>
<path d="M52.0698 51.5652H60.4404" stroke="#263238" stroke-miterlimit="10" stroke-linecap="round" stroke-linejoin="round"/>
<path d="M81.3246 30.5976V22.3098" stroke="#263238" stroke-miterlimit="10" stroke-linecap="round" stroke-linejoin="round"/>
<path d="M96.306 36.5838L102.011 30.8784" stroke="#263238" stroke-miterlimit="10" stroke-linecap="round" stroke-linejoin="round"/>
<path d="M60.6384 72.2514L66.4266 66.4626" stroke="#263238" stroke-miterlimit="10" stroke-linecap="round" stroke-linejoin="round"/>
<path d="M66.1788 36.4188L60.6384 30.8784" stroke="#263238" stroke-miterlimit="10" stroke-linecap="round" stroke-linejoin="round"/>
<path d="M102.011 72.2514L96.4938 66.7344" stroke="#263238" stroke-miterlimit="10" stroke-linecap="round" stroke-linejoin="round"/>
</svg>
